<svg id="Layer_1" data-name="Layer 1" xmlns="http://www.w3.org/2000/svg" viewBox="0 0 1190.55 841.89"><defs><style>.cls-1{fill:#f8ead7;}.cls-2{fill:#eacecc;}.cls-3{fill:#1a749d;}.cls-4{fill:#353334;}.cls-5{fill:#2d2729;}</style></defs><path d="M1101.08,643.93c3.34,2.7,6.84,5.23,10,8.15,2,1.9,3.6,1.41,5.6,0-1.24-3.77-5.74-4.68-7.17-8.2Z"/><path d="M912,643.93c3.37,2.75,6.82,5.43,10.11,8.28,1.55,1.35,3,1.84,4.57.34,2.18-2.1-.82-2.37-1.42-3.42-1.19-2.08-4.06-2.68-4.86-5.2Z"/><path d="M1023.33,643.93c-2,1.88-4.07,3.72-6,5.65-.68.66-1.93,1.38-1.27,2.48s2.29,2,3.11,1.26c3.52-3.11,8.19-5,10.51-9.39Z"/><path d="M1126.29,643.93c1.45,1.86,2.65,4,5.72,3,2.35-.75,1.1-1.88.59-3Z"/><path d="M937.18,643.93c1.4,1.58,2.34,3.73,5.19,3.13,2.43-.5,2.07-1.62,1.11-3.13Z"/><path d="M999.17,643.93c-.56,2.12.31,3.23,2.45,3.17,2,0,3.33-.82,2.8-3.17Z"/><rect class="cls-1" x="0.02" width="1190.55" height="841.89"/><path class="cls-2" d="M302.32,841.81h41.29q-2.58-.59-5.23-1A91.35,91.35,0,0,0,302.32,841.81Z"/><path class="cls-2" d="M562.19,841.81h40.6l-1.61-.33Q580.38,837.39,562.19,841.81Z"/><path class="cls-2" d="M33,820.47A107.71,107.71,0,0,0,0,836.29v5.52H1.44c15.86-12,34.38-18.91,55.85-20.11,25.91-1.45,48.47,5.5,67.74,20.11h8.79c-15.44-13.26-33.9-21.52-55.37-24.63A106.68,106.68,0,0,0,33,820.47Z"/><path class="cls-2" d="M513.08,841.81h8.34c36.71-27.41,87.9-26.79,123.65,0h8.78a101.15,101.15,0,0,0-49-23.4C569.11,811.87,538.41,819.89,513.08,841.81Z"/><path class="cls-2" d="M43.38,841.81H83.76A86.12,86.12,0,0,0,43.38,841.81Z"/><path class="cls-2" d="M253,841.81h8.44c36.47-27.23,87.58-27,123.61,0h8.62C352.18,807,293.28,807.69,253,841.81Z"/><path class="cls-2" d="M823.08,841.81h40.45A84.75,84.75,0,0,0,823.08,841.81Z"/><path class="cls-2" d="M1082.9,841.81h40.78A85.1,85.1,0,0,0,1082.9,841.81Z"/><path class="cls-2" d="M1032.63,841.81h8.42A97,97,0,0,1,1085.58,823c30.38-4.74,56.87,1.75,79.29,18.84h8.92C1134.88,808,1073.87,807.1,1032.63,841.81Z"/><path class="cls-2" d="M772.74,841.81h8.81c18.22-13.26,41.25-20.34,70.12-20.28,17.93.51,36.68,7.26,53.51,20.28h8.49a109.24,109.24,0,0,0-140.93,0Z"/><path class="cls-2" d="M1189.81,694.74l-.47-.42-.24-.22c-1.62-1.41-3.24-2.79-4.87-4.05l-.06,0-.31-.25-.39-.31c-.63-.5-1.26-1-1.9-1.44,0,0,0,0,0,0-1.67-1.26-3.34-2.44-5-3.57s-3.13-2-4.68-3l0,0-.7-.41-.53-.32-.62-.37c-1.77-1-3.52-2-5.26-2.89l-.63-.32s0,0,0,0L1164,677c-1.38-.71-2.75-1.36-4.1-2q-2.61-1.2-5.15-2.23l-.54-.21c-1-.41-2-.77-2.9-1.12l-1.76-.64-.15-.05-.09,0h0q-2.55-.91-5-1.65-4.44-1.33-8.58-2.27l-.76-.18-.92-.2c-17.26-3.7-29.89-2.66-31.56-2.5a133.69,133.69,0,0,0-28.38,2.5l-1,.2-.86.18a123.06,123.06,0,0,0-16.4,4.74c-.62.22-1.23.45-1.84.69q-1.38.53-2.73,1.08h0c-.84.34-1.66.69-2.48,1,0,0,0,0,0,0-.87.38-1.73.76-2.58,1.15l-.08,0-.15.07c-.53.24-1,.48-1.55.74l-1,.49-.17.09-.8.4c-2.46,1.24-4.81,2.54-7.07,3.87-.55.32-1.1.64-1.64,1l-1.72,1.06-.83.53-.12.08-1.55,1q-3.29,2.19-6.22,4.43l-.56.44-.2.14c-2.25,1.41-2.59-1.19-3.43-2.05C1008.57,677,996,670.24,980.85,668.46c-20.92-2.45-38.59,4.21-53.11,19.24-1.25,1.3-2.22,2.08-3.27,2.12l-.31-.25-.39-.31c-.63-.5-1.26-1-1.9-1.44,0,0,0,0,0,0-1.67-1.26-3.34-2.44-5-3.57s-3.13-2.05-4.68-3l0,0-1.23-.73-.62-.37c-1.77-1-3.52-2-5.26-2.89l-.63-.32s0,0,0,0c-1.41-.73-2.81-1.4-4.19-2q-2.61-1.2-5.15-2.23l-.54-.21c-1-.41-2-.77-2.9-1.12l-1.76-.64-.15,0c-1.73-.63-3.43-1.19-5.07-1.69q-4.44-1.33-8.58-2.27c-.56-.14-1.12-.26-1.68-.38-17.26-3.7-29.89-2.66-31.56-2.5a133.69,133.69,0,0,0-28.38,2.5l-1.82.38a123.06,123.06,0,0,0-16.4,4.74c-.62.22-1.23.45-1.84.69l-.5.1a5,5,0,0,0-.92.35c-.43.19-.87.4-1.31.63h0c-.84.34-1.66.69-2.48,1.05,0,0,0,0,0,0-.87.38-1.73.76-2.58,1.15l-.08,0c-.58.26-1.14.53-1.7.81l-1,.49-1,.49c-2.46,1.24-4.81,2.54-7.07,3.87-.55.32-1.1.64-1.64,1-.86.52-1.72,1-2.55,1.59l-.12.08-1.55,1q-3.29,2.19-6.22,4.43l-1,.74h0c-1.62.84-2.22-.56-3.19-1.55-5.77-6-12-11.45-20-14.32a28.6,28.6,0,0,0-6.28-2.86,39.93,39.93,0,0,0-6.74-1.52,57.08,57.08,0,0,0-14.36-1.88c-12,0-23.33,4-34,10.95a47.11,47.11,0,0,0-11.2,9.87c-1.27,1.57-2.17,1.86-3.53,1-.63-.5-1.26-1-1.9-1.45,0,0,0,0,0,0a61.08,61.08,0,0,0-5-3.56c-1.57-1.05-3.13-2.05-4.68-3,0,0,0,0,0,0l-1.85-1.1q-3-1.74-5.89-3.22l0,0c-1.41-.72-2.81-1.39-4.19-2a53.41,53.41,0,0,0-5.15-2.24l-.54-.21c-1-.4-1.95-.77-2.9-1.12l-1.91-.69c-1.73-.62-3.43-1.18-5.07-1.68-3.56-1.08-7-1.95-10.26-2.65-17.26-3.71-29.89-2.67-31.56-2.5a132.4,132.4,0,0,0-28.38,2.5,123.28,123.28,0,0,0-25.3,8s0,0,0,0c-.87.37-1.73.76-2.58,1.15l-.08,0c-.58.26-1.14.53-1.7.81l-1,.49c-2.81,1.39-5.49,2.85-8,4.35-.55.33-1.1.65-1.64,1q-2.18,1.32-4.22,2.69-3.28,2.19-6.22,4.43a5.75,5.75,0,0,1-.83.14c-4.16.4-6.55-5.57-10.17-8.3-14.85-11.21-31.33-15.55-49.7-12.64a17.25,17.25,0,0,0-2.8,1,26.29,26.29,0,0,0-6.34,1.33,32.46,32.46,0,0,0-5.87,2.72,6.2,6.2,0,0,0,.56.72,5.32,5.32,0,0,1-.57-.72l-.37,0-.37.08a.92.92,0,0,0-1.28.6,64.14,64.14,0,0,0-9.73,6,52.07,52.07,0,0,0-8.32,7.75c-1,1.2-1.85,1.75-2.71,1.77a119.92,119.92,0,0,0-13.87-9.43q-3-1.74-5.89-3.22A118.8,118.8,0,0,0,370.16,671c-1.73-.62-3.43-1.18-5.07-1.68-3.56-1.08-7-1.95-10.26-2.65-17.26-3.71-29.89-2.67-31.56-2.5a132.4,132.4,0,0,0-28.38,2.5A123.45,123.45,0,0,0,267,675.78l-.08,0c-.58.26-1.14.53-1.7.81-3.18,1.54-6.18,3.16-9,4.84q-3.06,1.8-5.86,3.68a7.35,7.35,0,0,0-3.06,1.38c-1,.87-2.28,1.42-3.18,2.37-1.89,2-3,1.29-4.65-.52-25.71-27.52-66.32-27.48-92.31.06-1,1.1-1.82,1.76-2.76,1.63h0a114.82,114.82,0,0,0-11.13-7.57h0l-1.37-.81q-3-1.74-5.89-3.22c-1.17-.6-2.33-1.17-3.48-1.7l-1.68-.78h0c-3.29-1.49-6.49-2.76-9.55-3.83-1.73-.62-3.43-1.18-5.07-1.68-3.56-1.08-7-2-10.26-2.65-2.14-.46-4.21-.85-6.19-1.17a103.87,103.87,0,0,0-25.37-1.33,134.17,134.17,0,0,0-21.56,1.33c-2.32.33-4.6.72-6.82,1.17A123.45,123.45,0,0,0,8,677l-.08,0c-.58.26-1.14.53-1.7.81C4.07,678.85,2,679.94,0,681.06v5.77A120.58,120.58,0,0,1,61.92,670.3c.81,0,1.64,0,2.46,0h.32c.13,0,11.08-1.15,26.64,1.71a120,120,0,0,1,13.35,3.24c2.38.73,4.88,1.57,7.46,2.56.7.28,1.4.58,2.09.89,24.28,10.69,43.29,27.45,57.7,50.28-5.82,1.49-11.31,2.87-16.8,4.29-2.84.74-3.27-1.93-4.3-3.3a107.33,107.33,0,0,0-48.68-36.67C66.87,680,29.08,685.42,0,706.33v6.55a102.36,102.36,0,0,1,22.18-13c43.92-18.9,94.2-5.63,123.59,32.23,2.21,2.85,2,3.74-1.43,4.9-4.36,1.48-8.76,5.59-12.61,5-3.49-.53-6.15-5.95-9.35-9C87.91,700,31.92,702,0,737.5V752A128.11,128.11,0,0,1,26,773.2c1.12,1.19,2.39,2.23,3.59,3.34h0q3.91,5.1,7.85,10.19l4.22,6.94c-1,1.81-3.23.33-4.16,1.85a31.55,31.55,0,0,0-9,1.89c-1,.31-2.25,0-3,1.08-4.44-.27-4.65-5.19-7.71-7l-1.15-1.86c-3.77-3.87-6.94-8.38-11.84-11-.24-1.1-.72-2-2-2.07h0c0-.68-.45-.9-1-1Q.86,774.76,0,774v6.63c1.77,2.29,5.06,2.48,6.58,5.18a25.33,25.33,0,0,0,8.48,9c.47,1.58.69,3.32,2.53,4-2.16,4.76-7.67,3.94-11.07,6.63l-3.12,2a3.37,3.37,0,0,1-3.4-1v8.36c2.47-1.47,5-2.88,7.59-4.23h0a165.06,165.06,0,0,1,21.08-7.92l1.28-.86c2.73.24,5.19-1,7.79-1.39A142.21,142.21,0,0,1,63.61,798a124.94,124.94,0,0,1,62.25,16.51,123.86,123.86,0,0,1,33.44,27.31h7.24c-.47-1.2,0-2.09,1-3.27,12.38-15.9,39.9-15.65,51.9.4.86,1.15,1.05,1.94.64,2.87h7.18q3.33-3.81,7-7.4c12.8-12.71,28-21.72,44.48-28.69l13-3.87h0c28.75-6.86,56.72-4.75,83.78,7.42a125.6,125.6,0,0,1,43.74,32.54h7.28c-.42-1-.16-1.79.73-3,12-16.05,39.58-16.13,51.88-.14.91,1.18,1.28,2.05.86,3.13h7.18c.17-.2.35-.39.52-.58,22.83-25.22,51.06-39.88,85.14-42.66,3.76-.31,5.74-1.88,6.49-5.41-1.82-.86-3.67-.23-5.81-.34a16.13,16.13,0,0,1,5.82-9c2.49-2.12,5.89-2.11,8.42.87a47.23,47.23,0,0,1,3.77,4.62c.9,1.38,3.19,3.42-1,3.66-1.87.11-1.44,2-1.38,3.22.13,2.37,2.11,2.22,3.69,2.29a104.67,104.67,0,0,1,24.49,4.19q37.46,10.73,61.93,39.17h7.24c-.53-1.31.16-2.2,1.06-3.35,12.46-15.77,38.87-15.63,51.56.2,1,1.19,1.36,2.05.91,3.15h7.13a127.57,127.57,0,0,1,18.21-17.13,124.65,124.65,0,0,1,58.35-25.15,16,16,0,0,0,2.77-1,9.66,9.66,0,0,1,.4-1.78,9.48,9.48,0,0,0-.39,1.78c6.38.54,12.66-.83,19-.91l3.1,0,8,.83h1.82c2.34.64,4.65,1.39,7.13,1.09a6.07,6.07,0,0,0,3.87.91l8.19,2a5,5,0,0,0,.76.3l9.92,3c3.08,2.24,7.11,1.91,10.34,4.09,5.44,3.66,11.22,6.8,16.86,10.17.9,1,1.52,2.27,3,2.6a135.12,135.12,0,0,1,18.34,16.48c.82.88,1.62,1.78,2.4,2.69h7.21c-.45-1-.1-1.75.69-2.84,11.75-16.24,40.54-16.26,52.19,0,.8,1.12,1,1.92.65,2.88h7.36c24-27.72,55.06-43,93.68-43.65,36-.57,65.64,11.54,89.58,34.75v-7.37c-1.27-1.31-1.06-2.11,0-3.28v-7.53c-1.28,1.2-2.52,2.48-3.74,3.82-1.47,1.62-2.33,2.17-4.32.55a65,65,0,0,0-9.83-6.69c-3-1.64-2.16-2.89-.43-4.79s3.87-3.18,4.61-5.72l13.71-10.07v-5.61c-.5.36-1,.73-1.47,1.12-5,1.82-9,5.17-12.63,9a25.09,25.09,0,0,0-5.1,4.35c-1.52,1.63-2.93,3.37-4.43,5-1.17,1.29-1.92,2.3-4.07,1.16-4.52-2.39-9.29-4.29-14.61-6.69,12.12-15.72,26.12-27.44,42.31-34.74V759.7a109,109,0,0,0-45.32,35.79c-1.67,2.23-2.94,3.31-6,2.24-4.62-1.6-9.52-2.4-14.68-3.63a123,123,0,0,1,30.8-34.47,126.16,126.16,0,0,1,35.21-19.31V729.73a109.08,109.08,0,0,0-53.16-38.15c-44.49-15-93.39.59-122.13,39-1.73,2.31-3,3.23-6,2.23-4.66-1.56-9.55-2.4-14.71-3.64a125.2,125.2,0,0,1,36.41-38.55,127,127,0,0,1,32.86-16.37,117.49,117.49,0,0,1,14.17-3.39h.07a128,128,0,0,1,22-1.88c.81,0,1.64,0,2.46,0h.32c.05,0,1.9-.2,5.11-.23h1.71c2.43,0,5.43.13,8.88.44,2.69.25,5.68.61,8.87,1.14a128.7,128.7,0,0,1,63.09,32.55v-7.45Zm-371.54-24.1h.07a128,128,0,0,1,22-1.88c.81,0,1.64,0,2.46,0h.32c.05,0,1.9-.2,5.11-.23a4.91,4.91,0,0,0,1.71,0c2.43,0,5.43.13,8.88.44a123.49,123.49,0,0,1,42.08,13,126.44,126.44,0,0,1,48.62,43.59l.1.17c.65,1,1.28,2.07,1.91,3.13l.12.2c-5.83,1.48-11.33,2.82-16.79,4.31-2.46.66-2.7-1.49-3.57-2.64C915,709,893.85,694.24,867.24,688.88c-44.58-9-81.66,4.54-110.47,39.83-3,3.7-5.22,5.42-10,3.32-3.57-1.57-7.72-1.81-11.7-2.67-.43-1.63.94-2.66,1.7-3.76C757.21,695.88,784.2,677.25,818.27,670.64Zm32.65,62.82c-20.93-2.45-38.64,4.12-53.17,19.22-2.19,2.28-3.55,3.29-6.2.66a26.82,26.82,0,0,0-7-4.76c-4.17-2.05-4.38-3.87-1.12-7.34,16.25-17.24,36.18-25.92,59.94-26.58,24.12.77,44.57,9.8,60.79,28.14,1.94,2.2,1.92,3.25-.69,4.73a56.58,56.58,0,0,0-9.46,6.41c-2.48,2.16-3.42.83-5-.89C878.71,741.93,866.08,735.23,850.92,733.46ZM885,761.38c-3.35,3-6,8-9.74,9-4,1-6.33-4.92-9.87-7.3-14.89-10-35.22-8.75-48.41,3.42-1.72,1.58-3.38,3.2-5.79,5.49-3.31-3.6-6.64-7.52-10.3-11.11-1.7-1.68-1.25-2.59.08-4a57.26,57.26,0,0,1,84.25-.2C887,758.49,886.93,759.65,885,761.38Zm-44.7-51.74c-24.9.73-45.58,10.89-61.95,29.59-2.5,2.86-4.22,3.67-7.68,1.57-3.63-2.2-7.8-3.52-12.09-5.38,42.33-59.94,130.15-57.11,169,0-4.83,2.21-9.72,4.27-14.42,6.68-2.32,1.19-3-.46-4-1.64C891.05,719.35,868.1,708.82,840.29,709.64Zm-126.95,5.09c-8.41-.1-13.2,5.09-15.88,12.6-3.46-4.82-6.63-9.44-10-13.89-1.43-1.88-1.48-3.09.09-5,12.73-15.59,38.37-15.63,51.26-.06,1.49,1.8,1.85,3,.25,5-3.49,4.4-6.67,9.06-10.18,13.89C726.37,719.79,721.54,714.83,713.34,714.73ZM723,727.49H703.37c1.77-5.14,5.34-7.47,9.88-7.47S721.34,722.41,723,727.49ZM671.34,691.4c15.37-15.67,33.86-20.79,55.18-16.72a7.05,7.05,0,0,0,4.82,1c8.5,4.1,16.88,8.31,23.43,15.46,1.68,1.84,2.23,3,1.12,4.38l-.33.29L754.22,697a46.22,46.22,0,0,0-7.21,7.05c-2,2.4-3,2.35-5.12-.05a38.79,38.79,0,0,0-45.16-9.14,42.44,42.44,0,0,0-14.62,11.63c-3.6-3.43-7-6.91-10.62-10C669.28,694.6,669.37,693.41,671.34,691.4Zm-160.75-.54a129,129,0,0,1,28-14.81l.1,0a123.33,123.33,0,0,1,41.23-6.89c.81,0,1.64,0,2.46,0h.32c.13,0,11.08-1.15,26.64,1.71,2.31.42,4.73.94,7.23,1.56a127.91,127.91,0,0,1,21.21,8A125.36,125.36,0,0,1,674,706.14a131.62,131.62,0,0,1,17.17,23.05c-5.55,1.41-10.79,2.8-16.07,4.07-3,.73-3.4-2.2-4.56-3.71-12.65-16.47-28.47-28.75-48-36.06-47-17.64-97.14-3-127.24,37-1.73,2.32-3,3.23-6,2.23-4.66-1.56-9.56-2.41-14.71-3.65A124.82,124.82,0,0,1,510.59,690.86Zm112.12,55.88c-26.32-20.54-61.58-18.3-84.81,5.89-2.54,2.64-4,2.84-6.66.49a33.86,33.86,0,0,0-7.82-5.29c-3.73-1.8-2.79-3.31-.63-5.76,32.16-36.43,89.27-36.27,121,.41l2.25,2.59c-.19,1-1,1.3-1.66,1.75-3.86,2.61-7.38,6.5-11.61,7.55C627.86,755.59,626.09,749.39,622.71,746.74ZM625.38,761c-3.45,3.11-6.24,8.19-10.15,9.22-4.06,1.08-6.49-5.08-10.19-7.46-15.62-10.06-38.33-9.17-52.94,8.68-3.85-3.67-7.41-7.17-11.08-10.53-1.52-1.4-1.7-2.38-.2-4,23.13-25.17,62.6-24.74,84.88.28C627.22,758.91,626.88,759.66,625.38,761Zm16.82-28.09c-34.65-33.25-91.29-30.84-123,5.43-3.18,3.64-5.52,4.47-9.65,1.95-3.35-2-7.18-3.29-11.09-5C514.31,713.59,535,699,561.14,693.92c42.05-8.21,76.93,4.8,104.28,37.9,2.22,2.69,2.76,4-1.25,5.27-4.38,1.4-8.8,5.54-12.63,4.92C648,741.45,645.41,736,642.2,732.93ZM453.44,714.74c-8.38-.11-13.33,4.82-15.86,12.71-2.75-3.85-5.3-7.55-7.92-11.15q-1.32-1.83-2.64-3.56c-1.15-1.51-1-2.38.05-3.79,12.11-16.19,39.2-16.31,52-.29,1.29,1.62,1.26,2.65.42,4l0,0c-3.65,4.58-6.75,9-9.12,12.59l-1.55,2.16C466.4,719.8,461.65,714.84,453.44,714.74ZM463,727.4a8.12,8.12,0,0,1-1.63.38c-5.88,0-11.76,0-18,0,1.45-5.34,5-7.63,9.53-7.76C457.77,719.9,461.28,722.47,463,727.4ZM411.2,691.6c6.83-7.34,15.2-12.24,24.42-15.87l4-1.25a90.38,90.38,0,0,1,13.64-1.13,54.46,54.46,0,0,1,22.09,4.33,59.51,59.51,0,0,1,19.8,14c1.27,1.35,2,2.27,1,3.56-.38.32-.75.65-1.11,1-1.53,1.36-3,2.72-4.37,4.07-1.17,1.14-2.3,2.28-3.37,3.4-.47.49-.93,1-1.39,1.48a5.74,5.74,0,0,1-.91.31c-3.65.88-6.31-5.12-9.93-7.54a38.93,38.93,0,0,0-50.43,6c-1.5,1.61-2.47,2.22-3.59,1.69a125.52,125.52,0,0,0-11.23-11.25C409.75,693.47,410.22,692.65,411.2,691.6Zm-171.68,8.18c15.83-14.08,42.69-30.65,81.35-30.65.81,0,1.64,0,2.46,0h.32c.13,0,11.08-1.15,26.64,1.71a124,124,0,0,1,28.52,9.95A127.11,127.11,0,0,1,431.86,729c-5.86,1.49-11.39,2.82-16.89,4.32-2.46.66-2.69-1.47-3.57-2.63-16.59-21.92-38-36.74-65.07-42-44.06-8.54-80.66,5-109.18,39.61-3.25,4-5.71,5.81-10.79,3.58-3.43-1.5-7.41-1.71-11.24-2.51a1.88,1.88,0,0,1-.06-.31h0A127.87,127.87,0,0,1,239.52,699.78Zm122.73,46.83a61.64,61.64,0,0,0-82.91,4.66c-3.73,3.81-6,4.28-9.71.7a22.82,22.82,0,0,0-6.17-4.17c-3.7-1.73-2.82-3.27-.6-5.73,16.2-17.84,36.41-26.68,60.39-27.42,24.29.76,44.74,9.78,61,28.12,1.85,2.09,2.14,3.13-.59,4.73-4,2.34-7.66,7.2-11.51,7.25C368.87,754.79,365.67,749.36,362.25,746.61Zm2.69,14.85a97.93,97.93,0,0,0-8.57,8.35c-1.62,1.83-2.3,1.32-3.76-.15-18.5-18.65-41.92-18-61.05,2.39-3.51-3.76-6.77-7.56-10.37-11-1.84-1.75-1.53-2.68-.06-4.39,20.95-24.41,63.66-24.38,84.26,0C367.14,758.78,366.75,759.86,364.94,761.46Zm-43.63-51.84c-25.31.48-46.3,10.67-62.93,29.65-2.53,2.88-4.27,3.6-7.7,1.54-3.65-2.18-7.8-3.54-11.74-5.26,36.42-55.29,124.64-61.9,168.87-.22-5.07,2.31-9.95,4.37-14.67,6.77-2.33,1.19-2.93-.52-3.94-1.69C371.34,719.63,348.74,709.09,321.31,709.62Zm-159.16-3.19-1.76-1.67a123,123,0,0,0-9.46-9.29l-1-.87c-.35-.84,0-1.61.95-2.62,24.29-26.72,66-23.78,86.43,2.44a16.89,16.89,0,0,0-1.53,1.21c-1.42,1.38-2.75,3-4.11,4.62-1.17,1.14-2.3,2.28-3.37,3.4a8.47,8.47,0,0,1-3,1.59c-4.36,1.21-6.74-5.3-10.63-7.74C200,688.25,177.51,688.1,162.15,706.43Zm8.56,11q-1.32-1.83-2.64-3.56c-.56-.73-1.12-1.45-1.69-2.16-.49-1.17.2-1.94,1-3,12.23-16,39.68-16,51.87,0,1.23,1.63,1.42,2.74.1,4.25-3.83,4.38-6.91,9.3-10.36,14.74-2.5-8.07-7.3-12.8-15.18-13-8.32-.23-13.54,4.45-16.12,12.71-1.15-1.59-2.26-3.14-3.34-4.67C173.14,721,171.94,719.19,170.71,717.47ZM203,727.59H183.46c1.61-5.2,5.23-7.63,10-7.56C198,720.09,201.52,722.46,203,727.59ZM11.34,753.15a39.91,39.91,0,0,0-8.24-5.57c-3.11-1.62-2.5-3-.57-5.1,16.23-18,36.52-27.1,60.94-27.83,24.06.76,44.53,9.78,60.78,28.11,1.84,2.07,2.17,3.11-.53,4.69-3.87,2.26-7.2,6.49-11.21,7.14-4.37.72-6.36-5.17-9.74-7.8C76.33,726.2,41.42,728.4,18,752.57,15.5,755.11,14.06,755.6,11.34,753.15Zm20.21,19.1c-3.47-3.79-6.67-7.62-10.25-11.06-2-1.92-1.56-3,.05-4.75,22-24.26,61.87-24.16,83.85.16,1.91,2.11,2,3.08-.26,4.86a69.53,69.53,0,0,0-8.24,7.95c-1.73,2-2.37,2.06-4.31,0C78.41,754.26,57,752,40.44,763.6,37.29,765.82,34.7,768.64,31.55,772.25Zm21.87,20.21c1.81-5.19,5.48-7.55,10.29-7.43,4.42.11,7.69,2.6,9.44,7.43ZM64,779.73c-8.61-.36-13.78,4.49-16.37,12.83l-9-12.94h0c-.49-1.59-2.9-2.1-2.39-4.25,13.67-17.28,37.9-18.45,52.09-2.61,2,2.18,2.45,3.67.37,6.2-3.46,4.21-6.44,8.82-9.72,13.4C76.5,785,72,780.06,64,779.73Zm162.18,55.2c-1.35,1.61-2.12,1.45-3.39-.08-15.25-18.27-44.42-17.88-59.13,0-1.28,1.57-2,1.45-3.34,0a93.74,93.74,0,0,0-8.92-8.69c-2.62-2.12-1.47-3.3.21-5,11.33-11.64,25-17.85,41.29-17.92,18.05-.08,32.7,7.21,43.67,19.83C233,827.18,229.52,831,226.2,834.93Zm27-22.21c-3.91,2.14-7.26,6.79-11.11,7.1-3.62.3-6.06-5.32-9.38-8-25.86-20.68-62.15-18.35-84.86,5.78-2.53,2.69-3.95,2.93-6.61.48a36,36,0,0,0-7.82-5.29c-3-1.54-3.36-2.67-1-5.35,16.21-18.11,36.56-27,60.62-27.83,24.22.74,44.56,9.69,60.81,27.75C256.07,809.76,256.5,810.93,253.24,812.72Zm23.31-11.09v.06s0,0,0-.07c-4.39.54-8.13,2.77-11.89,4.8-2.55,1.38-3.93.83-5.74-1.28-17.75-20.67-40.3-31.08-67.56-30.54-25.31.49-46.34,10.61-62.95,29.67-2.5,2.88-4.43,3.82-7.68,1.44-1.57-1.15-3.61-1.65-5.43-2.44-7.05-3-7.05-3-2-9.26,41.11-50.26,117.84-50.09,160.24.36.94,1.11,2,2.14,3,3.21h0C277,798.93,278.19,800.28,276.55,801.63Zm12.91-4.12h0c-5.4,2.63-8-.76-10.28-4.79-.07-.12-.27-.17-.42-.26C256.54,764.8,224.86,751,193.22,751c-32.68,0-65.32,14.69-87.46,43.94-2.05,2.7-3.69,3.92-7.24,2.63-4.31-1.57-8.94-2.31-14.11-3.57,25.28-38.36,60.37-59.92,106.17-60.83a144.46,144.46,0,0,1,16.25.59l5,.55c37.71,5,67.56,25.71,90.31,59.51C297.64,795.71,293.14,795.27,289.46,797.51Zm24.1-5a9.39,9.39,0,0,1,9.25-7.49c4.87-.21,8.39,2.31,10.24,7.49Zm9.93-12.79c-8.3-.05-13.36,4.77-15.93,12.62-3.53-5-6.73-9.76-10.27-14.29-1.54-2-.93-3.08.32-4.67,12.34-15.71,39.41-15.47,51.61.44,1,1.35,1.5,2.26.31,3.84-3.6,4.75-7,9.63-10.62,14.6C336.36,784.83,331.67,779.77,323.49,779.72ZM495,826.47a83.86,83.86,0,0,0-8.27,7.95c-1.48,1.57-2.29,2.38-4.11.2-13.95-16.78-42.92-19.4-60.88,2.36-3.4-3.61-6.4-7.21-9.86-10.31-2.27-2-2.4-3.16-.31-5.45,16.54-18.12,45.35-23.3,67.28-12a60.63,60.63,0,0,1,16.27,12.2C496.94,823.43,497.27,824.59,495,826.47Zm19.15-14.33c-4,2.36-7.48,6.76-11.61,7.37-4.36.64-6.67-5.27-10.16-8-26-20.32-61.56-17.94-84.44,6.1-2.57,2.71-4,2.9-6.63.46a42.8,42.8,0,0,0-6.57-4.49c-4.92-3.11-4.94-3.09-.84-7.59,15-16.44,36.61-26.1,60.56-26.3,23,.5,43.71,9.81,60.14,28.44C516.06,809.83,516.49,810.73,514.1,812.14Zm19.95-10a42.87,42.87,0,0,0-9.5,4.27c-2.62,1.56-3.88.81-5.69-1.28-35.35-40.68-94.56-41.14-130.35-.89-2.87,3.23-4.89,3.2-8.19,1.42-3.62-1.95-7.5-3.42-11.88-5.37,17-23.25,39.3-38,67.27-42.29,40.41-6.22,73.85,7.17,99.84,38.92C538,799.9,537.76,801,534.05,802.13Zm11.61-4c-3,.93-3.41-1.31-4.47-2.73-14.19-19-32.49-32.24-55.08-39.31A108.38,108.38,0,0,0,366.62,794c-2.68,3.5-4.83,5-9.25,3.19-3.91-1.56-8.27-2-13.08-3.1,26.64-40.13,63.5-61.75,111.37-60.94q4.88.08,9.58.48a.16.16,0,0,1,0,.06l5.93.66.06-.1c38.3,4.91,68.39,25.71,90.85,59.71C556.13,795.45,550.81,796.55,545.66,798.18Zm37.86-18.46c-8.43-.2-13.29,4.78-15.95,12.65-3.77-5.22-7.23-10.16-10.88-15-1.1-1.45-.49-2.27.31-3.39,11.66-16.28,40.15-16.34,52.21-.13,1,1.35,1.46,2.31.29,3.85-3.6,4.74-7,9.6-10.64,14.56C596.38,784.82,591.66,779.92,583.52,779.72Zm162.61,55.22c-1.37,1.63-2.15,1.41-3.4-.1-15.16-18.16-44.29-18-59.13.07-1.3,1.58-2,1.42-3.35,0a103.13,103.13,0,0,0-8.91-8.71c-2.16-1.8-1.8-2.83-.12-4.69,22.76-25.38,64.43-24.14,85.23,1.71C752.94,827.2,749.45,831,746.13,834.94Zm27.1-22.23c-3.92,2.12-7.3,6.83-11.12,7.07s-6.34-5.46-9.79-8.2c-25.65-20.41-61.66-18-84.45,6-2.47,2.61-3.89,3.09-6.63.58a39.17,39.17,0,0,0-8.24-5.55c-3-1.61-2.56-2.87-.58-5.08,16.3-18.3,36.83-27.19,60.89-27.87,24.2.86,44.39,9.77,60.5,27.69C775.86,809.61,776.63,810.86,773.23,812.71Zm9.58-5.52c-2.42,1.18-2.94-1.05-3.83-2.08-14.21-16.56-32-26.85-53.64-29.67-30.37-4-56.07,5.55-76.53,28.34-3.07,3.42-5.14,3.93-8.92,1.69-3.52-2.09-7.48-3.43-11.29-5.12,41.72-59.2,129-57.77,169.06,0C792.69,802.63,787.71,804.82,782.81,807.19Zm26.37-10c-4.18,1.51-6.5.69-9.32-3-44.37-57.86-130-57.44-174.16.77-2,2.68-3.64,4-7.22,2.67-4.32-1.59-9-2.32-14.14-3.58,25.26-38.34,60.34-59.51,106.14-60.95,48.73-1.53,90.5,25.74,111.1,61.13C817.23,795.2,813.05,795.75,809.18,797.15Zm43.55-4.77c-.64,1.7-2.91-.16-4.39.42l-2.73,0c-3.07,0-6.15-.08-9.2.17-2,.16-3.23,0-2.95-2.37,1.09-1.19,2.2-2.35,3.26-3.57,3.19-3.65,6.75-3.81,10.64-1.21a.33.33,0,0,0,.12,0l-.11.06c.92.59,1.88,1.14,2.76,1.8C851.73,788.81,853.43,790.53,852.73,792.38Zm6.19.1-1.52-3.78a17.16,17.16,0,0,0-3.39-4.56,13.13,13.13,0,0,0-4.88-2.9h0c-6.84-2.71-17.85.83-21.72,10.84-3.63-5-7.16-9.87-10.74-14.72-1.45-2,.14-3,1.15-4.2,12-14.45,35.29-15.43,48.76-2,1.41,1.4,2.65,3,4,4.44h0l-4.2,6.94Zm155.78,34.11c-3.39,2.93-6.06,8-9.81,8.84-3.49.82-6-5-9.49-7.33-13.89-9.5-37.11-11-53.38,8.34-3.7-3.54-7.21-7.29-11.14-10.54-3.08-2.55.42-3.51.78-5.2a1,1,0,0,0,.89-.89h0c11.64-10.64,24.93-16.57,40.29-16.57a61.13,61.13,0,0,1,6.14.31c14.32,1.42,26.24,7.67,36.16,18C1017.26,823.81,1016.71,824.85,1014.7,826.59Zm18-13.56c-3.78,2-7.12,6.72-10.68,6.75-3,0-5.92-5.12-9.13-7.67-22.65-18-52.46-19.13-75.52-2.92-2,1.4-4.35,2.55-5.2,5.15-5.45,7-11,5.21-16.61.22l-5.17-3.85c.38-.91.76-1.82,1.15-2.73,2.2-.6,1.83-3.16,3.3-4.33,3.27-1.07,5-4.14,7.76-5.92l3.15-2.94,8.81-5.09a84.6,84.6,0,0,1,39.2-9.92c22.15,0,43.48,9.36,59.88,27.3C1036.27,810,1036.14,811.16,1032.66,813Zm20.6-10.54c-4,1.34-8.26,5.22-11.7,4.52s-6-5.77-9-8.72a85.74,85.74,0,0,0-93.82-16.64c-2,.89-4.56,1.23-5.65,3.65a12.75,12.75,0,0,0-7.59,4.12,6.69,6.69,0,0,0-4.18,3.05c-3.22,1.5-5.51,4.08-7.83,6.65a3.16,3.16,0,0,0-1.69,1.31,6.66,6.66,0,0,0-.78,2c-3.43.31-3.49,5.5-7.4,5.11-3.81-3.1-9.4-2.43-13-6.09l-2.13-2c1.65-.74,2.23-2.36,3.09-3.74a162.87,162.87,0,0,1,17.91-18.2h0a1.45,1.45,0,0,0,.82-.1c.66.21,1-.14,1.23-.69l-1,.56q.5-.27,1-.57c46.7-33.21,109-24.61,143.58,19.64C1058.07,800.11,1057.26,801.16,1053.26,802.49Zm40-9.84c1.8-5.3,5.42-7.74,10.24-7.61,4.59.13,8,2.56,9.42,7.61ZM1129.15,778c-3.42,4.67-6.8,9.37-10.36,14.29-2.61-7.65-7.31-12.41-15.26-12.61-8.4-.2-13.37,4.65-16,12.67-3.78-5.22-7.23-10.16-10.88-14.94-1.09-1.42-.6-2.19.21-3.35,11.51-16.4,41.26-16.32,52.57.08C1130.6,775.86,1130.07,776.78,1129.15,778Zm15.66-16.56a69.53,69.53,0,0,0-8.25,7.94c-1.73,2-2.39,2-4.32-.06-13.87-15-35-17.33-51.52-6a51.23,51.23,0,0,0-8.69,8.14c-3.63-3.47-7.13-7-10.85-10.3-2.07-1.83-1.57-2.94.06-4.74,22-24.26,61.92-24.16,83.84.17C1147,758.74,1147,759.7,1144.81,761.48Zm18.51-13.88c-3.86,2.26-7.23,6.64-11.18,7.11s-6.08-5.17-9.37-7.77c-26.2-20.75-61.58-18.6-84.77,5.52-2.63,2.73-4.26,2.93-7,.5a45.34,45.34,0,0,0-8.26-5.54c-2.42-1.31-2.65-2.33-.8-4.41,13.42-15.1,29.95-24.45,50-27.36,2.47-.36,5-.62,7.44-.83,1.33-.11,2.66,0,4,0,24.12.7,44.46,9.64,60.62,27.81C1166.06,745,1166.11,746,1163.32,747.6Zm-77-54.7c40-5.9,73.17,7.42,99,38.78,2.62,3.19,2.27,4.28-1.49,5.57-4.2,1.45-8.55,5.47-12.16,4.78s-6.19-5.92-9.39-9c-34.49-33.17-91-31-122.71,4.86-3.6,4.08-6.22,5.2-10.86,2-2.93-2-6.6-2.95-10.4-4.57C1035.68,711.9,1058.05,697.06,1086.3,692.9Zm-5.72,99.2c.34.54.61,1.13,1.05,2-5.47,1.36-10.77,2.41-15.88,4-2.58.83-3.25-.69-4.29-2.09-16.93-22.92-39.32-37.59-67.29-42.83-32.58-6.12-62.35.87-88.64,21.46h0c-5.15,4.08-10.16,8.31-14.08,13.67a7.47,7.47,0,0,0-3,3.24c-2.78,2.09-3,7.06-7.79,6.9a2.19,2.19,0,0,0-1.94-.89c-.38,0-.78,0-1.17.08-2.43-1.4-5.22-1.54-7.85-2.25L865,794.29l1.06-4,3.59-4.53,6.15-7.56A136,136,0,0,1,905,752.89a129.74,129.74,0,0,1,35.43-15.63C993,722.75,1052,745.72,1080.58,792.1Zm-117-64.45c1-5.08,4.59-7,9-7.63,4.59-.63,8.42,2.42,10.12,7.63Zm35.62-14.55-.39.53c-2.68,3.41-5,6.7-7,9.58l-3,4.19c-2.58-7.77-7.38-12.5-15.61-12.71-7.23-.17-12.15,3.84-15.7,12.59-3.71-5.13-7.26-10.17-11-15.1-1.18-1.57-.1-2.36.68-3.36,12.46-16.13,39.71-16.07,52,0C1000.48,710.55,1000.31,711.56,999.16,713.1Zm17-17.94c-.21.17-.41.35-.61.54l-.33.29-1.34,1.21-.91.85c-.21.18-.42.38-.63.58q-2.1,1.9-4,4c-.22.23-.44.45-.65.68l-.16.16c-.47.49-.93,1-1.39,1.48l-.32.35,0,0c-1.19,1-2,.73-3.52-1-8.69-9.58-19.61-13.86-32.57-12.86-11.45.88-20.37,6.41-27.6,15l-1.72-1.66a126.2,126.2,0,0,0-10.72-10.73c-.1-1,.86-1.71,1.64-2.59,21.68-24.42,62.93-24.22,84.1.35C1016.5,693.2,1017,694.06,1016.2,695.16Z"/><circle class="cls-3" cx="208.48" cy="241.05" r="136.32"/><path class="cls-3" d="M1190.57,288.92V604.83a277.47,277.47,0,0,1-228.5,119.8c-153.4,0-277.75-124.35-277.75-277.75S808.67,169.12,962.07,169.12A277.47,277.47,0,0,1,1190.57,288.92Z"/><path class="cls-4" d="M681.62,310.67a3,3,0,0,1-.24,1.26,2.46,2.46,0,0,1-.66.85,2.32,2.32,0,0,1-.9.49,3.76,3.76,0,0,1-1,.14h-2.11a6.53,6.53,0,0,1-1.75-.2,3.91,3.91,0,0,1-1.41-.74,7.54,7.54,0,0,1-1.35-1.47,18.91,18.91,0,0,1-1.42-2.37l-14.63-27.27c-.76-1.41-1.54-2.89-2.31-4.43s-1.5-3.05-2.17-4.51h-.08c0,1.78.09,3.6.12,5.45s0,3.7,0,5.52v28.95a.94.94,0,0,1-.15.5,1,1,0,0,1-.53.37,5.37,5.37,0,0,1-1,.22,10.8,10.8,0,0,1-1.54.09,11,11,0,0,1-1.55-.09,4.92,4.92,0,0,1-1-.22,1,1,0,0,1-.5-.37.87.87,0,0,1-.16-.5V268.09a2.5,2.5,0,0,1,.84-2.12,3,3,0,0,1,1.84-.63h3.13a8.07,8.07,0,0,1,1.86.19,4,4,0,0,1,1.34.61,5.44,5.44,0,0,1,1.14,1.19,15.55,15.55,0,0,1,1.17,1.91L668,290.29c.69,1.28,1.36,2.54,2,3.76s1.27,2.43,1.86,3.61,1.19,2.36,1.78,3.5,1.16,2.31,1.73,3.47h0q-.08-2.92-.09-6.1t0-6.09v-26a.79.79,0,0,1,.16-.48,1.22,1.22,0,0,1,.52-.39,3.6,3.6,0,0,1,1-.24,13.35,13.35,0,0,1,1.59-.08,12.44,12.44,0,0,1,1.48.08,3.33,3.33,0,0,1,1,.24,1.32,1.32,0,0,1,.51.39.85.85,0,0,1,.15.48Z"/><path class="cls-4" d="M730.4,271.87a9,9,0,0,1-.08,1.24,3.61,3.61,0,0,1-.22.89,1.11,1.11,0,0,1-.37.5.85.85,0,0,1-.48.15,3.35,3.35,0,0,1-1.48-.71,23,23,0,0,0-2.78-1.55,25.86,25.86,0,0,0-4.17-1.56,20.85,20.85,0,0,0-5.77-.7,16.91,16.91,0,0,0-7.11,1.44,15.39,15.39,0,0,0-5.34,4,17.92,17.92,0,0,0-3.35,6.08,26.06,26.06,0,0,0,.11,15.79,17.29,17.29,0,0,0,3.54,6,14.67,14.67,0,0,0,5.39,3.71,18.26,18.26,0,0,0,6.87,1.26,19.5,19.5,0,0,0,4.51-.54,16.75,16.75,0,0,0,4.24-1.61v-14H712.79a1,1,0,0,1-.94-.63,4.63,4.63,0,0,1-.32-2,8.2,8.2,0,0,1,.08-1.2,2.66,2.66,0,0,1,.24-.82,1.21,1.21,0,0,1,.39-.46,1,1,0,0,1,.55-.15H728a2.32,2.32,0,0,1,.81.15,2.26,2.26,0,0,1,.74.45,1.84,1.84,0,0,1,.52.81,3.62,3.62,0,0,1,.19,1.19v18.27a3.92,3.92,0,0,1-.34,1.67,2.88,2.88,0,0,1-1.41,1.24,25.07,25.07,0,0,1-2.78,1.16,30.93,30.93,0,0,1-10.85,2,26.94,26.94,0,0,1-9.94-1.72,20.33,20.33,0,0,1-7.39-4.91A21.67,21.67,0,0,1,693,299.7a29.3,29.3,0,0,1-1.59-9.93,29.66,29.66,0,0,1,1.72-10.34,22.68,22.68,0,0,1,4.86-7.9,21.67,21.67,0,0,1,7.52-5,25.43,25.43,0,0,1,9.73-1.8,26.27,26.27,0,0,1,5.15.48,32.46,32.46,0,0,1,4.28,1.13,17.16,17.16,0,0,1,3.16,1.41,9.3,9.3,0,0,1,1.75,1.24,2.46,2.46,0,0,1,.67,1.11A6.55,6.55,0,0,1,730.4,271.87Z"/><path class="cls-4" d="M789.92,264.45a20.66,20.66,0,0,1-.85,6.49,9,9,0,0,1-2.38,3.87,7.92,7.92,0,0,1-3.65,1.88,21.48,21.48,0,0,1-4.72.48v18.42a22.51,22.51,0,0,1-1.26,7.82,15.16,15.16,0,0,1-9.47,9.37,22.8,22.8,0,0,1-7.73,1.23,21.84,21.84,0,0,1-7.23-1.15,14.68,14.68,0,0,1-9.17-9,21.91,21.91,0,0,1-1.28-7.8V266.31a1,1,0,0,1,.67-.89,7,7,0,0,1,2.52-.3,6.84,6.84,0,0,1,2.5.3,1,1,0,0,1,.65.89v29a18.54,18.54,0,0,0,.82,5.82,10.9,10.9,0,0,0,2.35,4.13,9.66,9.66,0,0,0,3.71,2.48,13.37,13.37,0,0,0,4.87.84c3.71,0,6.58-1.08,8.63-3.24s3.08-5.4,3.08-9.7V266.31a1,1,0,0,1,.67-.89,7,7,0,0,1,2.52-.3,6.91,6.91,0,0,1,2.46.3,1,1,0,0,1,.69.89v7.37a7.64,7.64,0,0,0,2-.46,3.69,3.69,0,0,0,1.52-1.15,5.54,5.54,0,0,0,1-2.13,14.35,14.35,0,0,0,.33-3.37v-2.12a5.07,5.07,0,0,1,.19-1.55A1.85,1.85,0,0,1,784,262a2.23,2.23,0,0,1,1.06-.44,9.16,9.16,0,0,1,1.61-.11,8.63,8.63,0,0,1,1.56.11,2.08,2.08,0,0,1,1,.44,1.87,1.87,0,0,1,.55.93A5.88,5.88,0,0,1,789.92,264.45Zm-21.68-11a.64.64,0,0,1,.52-.64,6.54,6.54,0,0,1,1.78-.17,3.51,3.51,0,0,1,1.74.28c.27.18.4.58.4,1.2a7.5,7.5,0,0,1-1.9,5.43,7.16,7.16,0,0,1-5.4,2,8.17,8.17,0,0,1-3.41-.66,21.46,21.46,0,0,1-2.65-1.47c-.8-.53-1.55-1-2.26-1.44a4.22,4.22,0,0,0-2.24-.65,2.45,2.45,0,0,0-2.19.93,4.32,4.32,0,0,0-.63,2.48.6.6,0,0,1-.16.43,1.1,1.1,0,0,1-.47.25,2.69,2.69,0,0,1-.72.12h-.94a3.39,3.39,0,0,1-1.75-.29,1.42,1.42,0,0,1-.4-1.19,9,9,0,0,1,.52-3.17,6.05,6.05,0,0,1,1.48-2.31,6.49,6.49,0,0,1,2.31-1.43,8.68,8.68,0,0,1,3-.5,8,8,0,0,1,3.41.67,19.75,19.75,0,0,1,2.63,1.44l2.24,1.45a4.25,4.25,0,0,0,2.28.66,2.77,2.77,0,0,0,2.06-.76A3.71,3.71,0,0,0,768.24,253.48Z"/><path class="cls-4" d="M843.66,279.39a17,17,0,0,1-1.19,6.49,13.76,13.76,0,0,1-3.39,4.93,15.41,15.41,0,0,1-5.41,3.15,23.48,23.48,0,0,1-7.65,1.11h-5.45v17.27a.85.85,0,0,1-.17.52,1.09,1.09,0,0,1-.52.35,4.59,4.59,0,0,1-1,.22,13.22,13.22,0,0,1-3.08,0,5.37,5.37,0,0,1-1-.22,1,1,0,0,1-.52-.35.91.91,0,0,1-.15-.52V268.09A2.59,2.59,0,0,1,815,266a2.7,2.7,0,0,1,1.74-.63H827c1,0,2,.05,3,.13a29.86,29.86,0,0,1,3.38.56,14.1,14.1,0,0,1,4,1.59,12.5,12.5,0,0,1,3.43,2.88,12.35,12.35,0,0,1,2.17,3.94A15.57,15.57,0,0,1,843.66,279.39Zm-6.71.52a10,10,0,0,0-1.09-4.89,7.58,7.58,0,0,0-2.71-2.93,9.09,9.09,0,0,0-3.33-1.22,21.68,21.68,0,0,0-3.36-.26h-5.89v19.23h5.74a13.23,13.23,0,0,0,4.8-.74,9,9,0,0,0,3.21-2.06,8.49,8.49,0,0,0,2-3.15A11.43,11.43,0,0,0,837,279.91Z"/><path class="cls-4" d="M888,312.34a.91.91,0,0,1-.15.52,1,1,0,0,1-.52.35,5.18,5.18,0,0,1-1,.22,10.58,10.58,0,0,1-1.5.09,10.82,10.82,0,0,1-1.56-.09,4.92,4.92,0,0,1-1-.22,1,1,0,0,1-.52-.35.91.91,0,0,1-.15-.52V291.07H859.78v21.27a.91.91,0,0,1-.15.52,1,1,0,0,1-.52.35,5,5,0,0,1-1,.22,13,13,0,0,1-3.06,0,5.25,5.25,0,0,1-1-.22,1,1,0,0,1-.52-.35.9.9,0,0,1-.14-.52v-46a.9.9,0,0,1,.14-.52,1,1,0,0,1,.52-.35,6,6,0,0,1,1-.23,13,13,0,0,1,3.06,0,5.72,5.72,0,0,1,1,.23.94.94,0,0,1,.52.35.91.91,0,0,1,.15.52v19.2h21.83v-19.2a.91.91,0,0,1,.15-.52.94.94,0,0,1,.52-.35,5.66,5.66,0,0,1,1-.23,10.82,10.82,0,0,1,1.56-.09,10.58,10.58,0,0,1,1.5.09,6,6,0,0,1,1,.23.94.94,0,0,1,.52.35.91.91,0,0,1,.15.52Z"/><path class="cls-4" d="M936.61,311a4.42,4.42,0,0,1,.31,1.32.92.92,0,0,1-.27.76,1.85,1.85,0,0,1-1,.33,17.81,17.81,0,0,1-1.83.07c-.77,0-1.38,0-1.84,0a4,4,0,0,1-1-.19,1,1,0,0,1-.52-.35,3.07,3.07,0,0,1-.32-.55L926,300.7H906.07l-3.93,11.53a1.72,1.72,0,0,1-.3.57,1.42,1.42,0,0,1-.53.41,3.4,3.4,0,0,1-1,.24,15.64,15.64,0,0,1-1.69.07,14,14,0,0,1-1.76-.09,1.74,1.74,0,0,1-1-.35.9.9,0,0,1-.26-.76A4.48,4.48,0,0,1,896,311L912,266.46a1.56,1.56,0,0,1,1.09-1.08,4.88,4.88,0,0,1,1.19-.2q.72-.06,1.83-.06c.79,0,1.45,0,2,.06a5.35,5.35,0,0,1,1.25.2,1.65,1.65,0,0,1,.75.43,2,2,0,0,1,.4.68ZM916,271.72h0l-8.27,23.9h16.68Zm4.45-19.61a4.12,4.12,0,0,1,.8-.74,3.48,3.48,0,0,1,.87-.41,6.33,6.33,0,0,1,1.15-.2q.66-.06,1.59-.06a7.15,7.15,0,0,1,1.74.17,2,2,0,0,1,.89.43.56.56,0,0,1,.17.59,1.86,1.86,0,0,1-.42.71l-8.42,7.85a4.13,4.13,0,0,1-.68.58,3.28,3.28,0,0,1-.73.33,4.58,4.58,0,0,1-.94.19c-.36,0-.8.05-1.32.05a7.59,7.59,0,0,1-1.33-.09,1.2,1.2,0,0,1-.67-.3.52.52,0,0,1-.11-.5,2,2,0,0,1,.41-.7Z"/><path class="cls-4" d="M974.08,279.39a17,17,0,0,1-1.19,6.49,13.76,13.76,0,0,1-3.39,4.93,15.41,15.41,0,0,1-5.41,3.15,23.48,23.48,0,0,1-7.65,1.11H951v17.27a.85.85,0,0,1-.17.52,1.09,1.09,0,0,1-.52.35,4.59,4.59,0,0,1-1,.22,13.22,13.22,0,0,1-3.08,0,5.37,5.37,0,0,1-1-.22,1,1,0,0,1-.52-.35.91.91,0,0,1-.15-.52V268.09a2.59,2.59,0,0,1,.78-2.12,2.7,2.7,0,0,1,1.74-.63H957.4c1,0,2,.05,3,.13a29.86,29.86,0,0,1,3.38.56,14.1,14.1,0,0,1,4,1.59,12.5,12.5,0,0,1,3.43,2.88,12.35,12.35,0,0,1,2.17,3.94A15.57,15.57,0,0,1,974.08,279.39Zm-6.71.52a10,10,0,0,0-1.09-4.89,7.58,7.58,0,0,0-2.71-2.93,9.09,9.09,0,0,0-3.33-1.22,21.68,21.68,0,0,0-3.36-.26H951v19.23h5.74a13.23,13.23,0,0,0,4.8-.74,9,9,0,0,0,3.21-2.06,8.49,8.49,0,0,0,2-3.15A11.43,11.43,0,0,0,967.37,279.91Z"/><path d="M613.16,604.88V332.61h48.7V604.88Zm103.73,0L669,392.05H648.06V332.61h41.22l47.93,212.83h12.85v59.44Zm27.42,0V332.61H793V604.88Z"/><path d="M814.56,604.88V552.72q60-32,89.54-66.82t29.53-71.8q0-18.6-9.11-27.9t-27.7-9.3q-16.3,0-34,9a99.1,99.1,0,0,0-30.58,24l-29.53-34.32q14.19-21.09,40.27-33.94a122.17,122.17,0,0,1,54.64-12.85q44.68,0,66.92,20.42t22.24,61.65q0,38.54-22.62,73.91t-68.84,68v52.16Zm11.51,0V560H998.25v44.87Z"/><path class="cls-5" d="M157.4,229h-6.74v29.33a25.49,25.49,0,0,1-5.1,15.12q-1.92,2.64-10,10.75l-6.2-7.11a55.83,55.83,0,0,0,6.93-7.65,17.15,17.15,0,0,0,3.28-9.65l-.1-30.79h-6.83v-11.2h6.65v-8.93h-6.65v-11H157.4v11h-7v8.93h7Z"/><path class="cls-5" d="M170.38,307.13v13q0,15.75-10.11,24.86-9.48,8.39-24.5,8.38h-4.29v17.67H120.19V307.13H139.5V298.2h11.11v8.93Zm-11.75,11H131.39V342.2h5q11.39,0,17.13-6.47,5-5.64,5-14.94Z"/><path class="cls-5" d="M169.74,442q-3.11,6.92-6.92,10a16.54,16.54,0,0,1-10.48,3.27H122.92V391.38h11.39v53.11h16.48q6.47,0,9.75-7.29Z"/><path class="cls-5" d="M170.7,493.49H150.84v52.92H139.73V513.62h-19v-11.2h19v-8.93h-19v-11h50Z"/><path class="cls-4" d="M603.54,604.28V332h48.71V604.28Zm103.74,0L659.34,391.44h-20.9V332h41.22L727.6,544.84h12.85v59.44Zm27.41,0V332h48.7V604.28Z"/><path class="cls-4" d="M805,604.28V552.12q60-32,89.54-66.82T924,413.5q0-18.6-9.11-27.9t-27.71-9.3q-16.29,0-34,9a99,99,0,0,0-30.58,24L793.06,375q14.19-21.09,40.26-33.94A122.21,122.21,0,0,1,888,328.17q44.67,0,66.92,20.42t22.24,61.65q0,38.53-22.63,73.91t-68.83,68v52.16Zm11.5,0V559.41H988.63v44.87Z"/></svg>