<svg xmlns="http://www.w3.org/2000/svg" viewBox="0 0 1190.55 841.89"><defs><style>.cls-1{fill:#394566;}.cls-2{fill:#536989;}.cls-3{fill:#f05823;}.cls-4{fill:#fef5f4;}</style></defs><g id="Layer_2" data-name="Layer 2"><g id="Layer_1-2" data-name="Layer 1"><rect class="cls-1" width="1190.55" height="841.89"/><path class="cls-2" d="M302.34,841.59h41.29q-2.58-.58-5.23-1A91.35,91.35,0,0,0,302.34,841.59Z"/><path class="cls-2" d="M562.21,841.59h40.6l-1.61-.33Q580.4,837.17,562.21,841.59Z"/><path class="cls-2" d="M33.06,820.25A107.71,107.71,0,0,0,0,836.07v5.52H1.46c15.86-12,34.38-18.91,55.85-20.11,25.91-1.45,48.47,5.5,67.74,20.11h8.79C118.4,828.33,99.94,820.07,78.47,817A106.68,106.68,0,0,0,33.06,820.25Z"/><path class="cls-2" d="M513.1,841.59h8.34c36.71-27.41,87.9-26.79,123.65,0h8.78a101.15,101.15,0,0,0-49-23.4C569.13,811.65,538.43,819.67,513.1,841.59Z"/><path class="cls-2" d="M43.4,841.59H83.78A86.12,86.12,0,0,0,43.4,841.59Z"/><path class="cls-2" d="M253,841.59h8.44c36.47-27.23,87.58-27,123.61,0h8.62C352.2,806.82,293.3,807.47,253,841.59Z"/><path class="cls-2" d="M823.1,841.59h40.45A84.75,84.75,0,0,0,823.1,841.59Z"/><path class="cls-2" d="M1082.92,841.59h40.78A85.1,85.1,0,0,0,1082.92,841.59Z"/><path class="cls-2" d="M1032.65,841.59h8.42a97,97,0,0,1,44.53-18.84c30.38-4.74,56.87,1.75,79.29,18.84h8.92C1134.9,807.76,1073.89,806.88,1032.65,841.59Z"/><path class="cls-2" d="M772.76,841.59h8.81c18.22-13.26,41.25-20.34,70.12-20.28,17.93.51,36.68,7.26,53.51,20.28h8.49a109.24,109.24,0,0,0-140.93,0Z"/><path class="cls-2" d="M1189.83,694.52l-.47-.42-.24-.22c-1.62-1.41-3.24-2.79-4.87-4l-.06-.05-.31-.25-.39-.31c-.63-.5-1.26-1-1.9-1.44,0,0,0,0,0,0-1.67-1.26-3.34-2.44-5-3.57s-3.13-2.05-4.68-3l0,0-.7-.41-.53-.32-.62-.37c-1.77-1-3.52-2-5.26-2.89l-.63-.32s0,0,0,0l-.09-.05c-1.38-.71-2.75-1.36-4.1-2q-2.61-1.2-5.15-2.23l-.54-.21c-1-.41-2-.77-2.9-1.12l-1.76-.64-.15,0-.09,0h0q-2.55-.91-5-1.65-4.44-1.33-8.58-2.27l-.76-.18-.92-.2c-17.26-3.7-29.89-2.66-31.56-2.5a133.69,133.69,0,0,0-28.38,2.5l-1,.2-.86.18a123.06,123.06,0,0,0-16.4,4.74c-.62.22-1.23.45-1.84.69q-1.38.53-2.73,1.08h0c-.84.34-1.66.69-2.48,1,0,0,0,0,0,0-.87.38-1.73.76-2.58,1.15l-.08,0-.15.07c-.53.24-1,.48-1.55.74l-1,.49-.17.09c-.27.13-.54.26-.8.4-2.46,1.24-4.81,2.54-7.07,3.87-.55.32-1.1.64-1.64,1l-1.72,1.06-.83.53-.12.08-1.55,1q-3.29,2.19-6.22,4.43l-.56.44-.2.14c-2.25,1.41-2.59-1.19-3.43-2C1008.59,676.8,996,670,980.87,668.24c-20.92-2.45-38.59,4.21-53.11,19.24-1.25,1.3-2.22,2.08-3.27,2.12l-.31-.25-.39-.31c-.63-.5-1.26-1-1.9-1.44,0,0,0,0,0,0-1.67-1.26-3.34-2.44-5-3.57s-3.13-2-4.68-3l0,0-1.23-.73-.62-.37c-1.77-1-3.52-2-5.26-2.89l-.63-.32s0,0,0,0c-1.41-.73-2.81-1.4-4.19-2q-2.61-1.2-5.15-2.23c-.18-.07-.36-.15-.54-.21-1-.41-2-.77-2.9-1.12l-1.76-.64-.15-.05c-1.73-.63-3.43-1.19-5.07-1.69q-4.44-1.34-8.58-2.27c-.56-.14-1.12-.26-1.68-.38-17.26-3.7-29.89-2.66-31.56-2.5a133.69,133.69,0,0,0-28.38,2.5l-1.82.38a123.06,123.06,0,0,0-16.4,4.74c-.62.22-1.23.45-1.84.69l-.5.1a5,5,0,0,0-.92.35c-.43.19-.87.4-1.31.63h0c-.84.34-1.66.69-2.48,1,0,0,0,0,0,0-.87.38-1.73.76-2.58,1.15l-.08,0c-.58.26-1.14.53-1.7.81l-1,.49-1,.49c-2.46,1.24-4.81,2.54-7.07,3.87-.55.32-1.1.64-1.64,1-.86.52-1.72,1-2.55,1.59l-.12.08-1.55,1q-3.29,2.19-6.22,4.43l-1,.74h0c-1.62.84-2.22-.56-3.19-1.55-5.77-6-12-11.45-20-14.32A28.6,28.6,0,0,0,733.2,671a39.93,39.93,0,0,0-6.74-1.52,57.08,57.08,0,0,0-14.36-1.88c-12,0-23.33,4-34,10.95a47.11,47.11,0,0,0-11.2,9.87c-1.27,1.57-2.17,1.86-3.53,1-.63-.5-1.26-1-1.9-1.45,0,0,0,0,0,0a61.08,61.08,0,0,0-5-3.56c-1.57-1-3.13-2-4.68-3l0,0-1.85-1.1q-3-1.74-5.89-3.22l0,0c-1.41-.72-2.81-1.39-4.19-2a53.41,53.41,0,0,0-5.15-2.24l-.54-.21c-1-.4-1.95-.77-2.9-1.12l-1.91-.69c-1.73-.62-3.43-1.18-5.07-1.68-3.56-1.08-7-2-10.26-2.65-17.26-3.71-29.89-2.67-31.56-2.5a132.4,132.4,0,0,0-28.38,2.5,123.28,123.28,0,0,0-25.3,8s0,0,0,0c-.87.37-1.73.76-2.58,1.15l-.08,0c-.58.26-1.14.53-1.7.81l-1,.49c-2.81,1.39-5.49,2.85-8,4.35-.55.33-1.1.65-1.64,1q-2.18,1.32-4.22,2.69-3.28,2.19-6.22,4.43a5.75,5.75,0,0,1-.83.14c-4.16.4-6.55-5.57-10.17-8.3-14.85-11.21-31.33-15.55-49.7-12.64a17.25,17.25,0,0,0-2.8,1,26.29,26.29,0,0,0-6.34,1.33,32.46,32.46,0,0,0-5.87,2.72,6.2,6.2,0,0,0,.56.72,5.32,5.32,0,0,1-.57-.72l-.37,0-.37.08a.92.92,0,0,0-1.28.6,64.14,64.14,0,0,0-9.73,6,52.07,52.07,0,0,0-8.32,7.75c-1,1.2-1.85,1.75-2.71,1.77a119.92,119.92,0,0,0-13.87-9.43q-3-1.74-5.89-3.22a118.8,118.8,0,0,0-14.72-6.31c-1.73-.62-3.43-1.18-5.07-1.68-3.56-1.08-7-2-10.26-2.65-17.26-3.71-29.89-2.67-31.56-2.5a132.4,132.4,0,0,0-28.38,2.5A123.45,123.45,0,0,0,267,675.56l-.08,0c-.58.26-1.14.53-1.7.81-3.18,1.54-6.18,3.16-9,4.84q-3.06,1.8-5.86,3.68a7.35,7.35,0,0,0-3.06,1.38c-1,.87-2.28,1.42-3.18,2.37-1.89,2-3,1.29-4.65-.52-25.71-27.52-66.32-27.48-92.31.06-1,1.1-1.82,1.76-2.76,1.63h0a114.82,114.82,0,0,0-11.13-7.57h0l-1.37-.81q-3-1.74-5.89-3.22c-1.17-.6-2.33-1.17-3.48-1.7l-1.68-.78h0c-3.29-1.49-6.49-2.76-9.55-3.83-1.73-.62-3.43-1.18-5.07-1.68-3.56-1.08-7-2-10.26-2.65-2.14-.46-4.21-.85-6.19-1.17a103.87,103.87,0,0,0-25.37-1.33,134.17,134.17,0,0,0-21.56,1.33c-2.32.33-4.6.72-6.82,1.17A123.45,123.45,0,0,0,8,676.73l-.08,0c-.58.26-1.14.53-1.7.81-2.17,1-4.25,2.14-6.26,3.26v5.77a120.58,120.58,0,0,1,61.94-16.53c.81,0,1.64,0,2.46,0h.32c.13,0,11.08-1.15,26.64,1.71A120,120,0,0,1,104.71,675c2.38.73,4.88,1.57,7.46,2.56.7.28,1.4.58,2.09.89,24.28,10.69,43.29,27.45,57.7,50.28-5.82,1.49-11.31,2.87-16.8,4.29-2.84.74-3.27-1.93-4.3-3.3a107.33,107.33,0,0,0-48.68-36.67C66.89,679.81,29.1,685.2,0,706.11v6.55a102.36,102.36,0,0,1,22.18-13c43.92-18.9,94.2-5.63,123.59,32.23,2.21,2.85,2,3.74-1.43,4.9-4.36,1.48-8.76,5.59-12.61,5-3.49-.53-6.15-5.95-9.35-9-34.45-33.06-90.44-31-122.38,4.49v14.46A128.11,128.11,0,0,1,26,773c1.12,1.19,2.39,2.23,3.59,3.34h0q3.91,5.1,7.85,10.19l4.22,6.94c-1,1.81-3.23.33-4.16,1.85a31.55,31.55,0,0,0-9,1.89c-1,.31-2.25,0-3,1.08-4.44-.27-4.65-5.19-7.71-7l-1.15-1.86c-3.77-3.87-6.94-8.38-11.84-11-.24-1.1-.72-2-2-2.07h0c0-.68-.45-.9-1-1q-.86-.78-1.74-1.53v6.63c1.77,2.29,5.06,2.48,6.58,5.18a25.33,25.33,0,0,0,8.48,9c.47,1.58.69,3.32,2.53,4-2.16,4.76-7.67,3.94-11.07,6.63l-3.12,2a3.37,3.37,0,0,1-3.4-1v8.36c2.47-1.47,5-2.88,7.59-4.23h0a165.06,165.06,0,0,1,21.08-7.92l1.28-.86c2.73.24,5.19-1,7.79-1.39a142.21,142.21,0,0,1,25.89-2.45,124.94,124.94,0,0,1,62.25,16.51,123.86,123.86,0,0,1,33.44,27.31h7.24c-.47-1.2,0-2.09.95-3.27,12.38-15.9,39.9-15.65,51.9.4.86,1.15,1.05,1.94.64,2.87h7.18q3.33-3.81,7-7.4c12.8-12.71,28-21.72,44.48-28.69l13-3.87h0c28.75-6.86,56.72-4.75,83.78,7.42a125.6,125.6,0,0,1,43.74,32.54h7.28c-.42-1-.16-1.79.73-3,12-16.05,39.58-16.13,51.88-.14.91,1.18,1.28,2,.86,3.13h7.18c.17-.2.35-.39.52-.58,22.83-25.22,51.06-39.88,85.14-42.66,3.76-.31,5.74-1.88,6.49-5.41-1.82-.86-3.67-.23-5.81-.34a16.13,16.13,0,0,1,5.82-9c2.49-2.12,5.89-2.11,8.42.87a47.23,47.23,0,0,1,3.77,4.62c.9,1.38,3.19,3.42-1,3.66-1.87.11-1.44,2-1.38,3.22.13,2.37,2.11,2.22,3.69,2.29a104.67,104.67,0,0,1,24.49,4.19q37.46,10.73,61.93,39.17h7.24c-.53-1.31.16-2.2,1.06-3.35,12.46-15.77,38.87-15.63,51.56.2.95,1.19,1.36,2,.91,3.15h7.13a127.57,127.57,0,0,1,18.21-17.13,124.65,124.65,0,0,1,58.35-25.15,16,16,0,0,0,2.77-1,9.66,9.66,0,0,1,.4-1.78,9.48,9.48,0,0,0-.39,1.78c6.38.54,12.66-.83,19-.91l3.1,0,8,.83h1.82c2.34.64,4.65,1.39,7.13,1.09a6.07,6.07,0,0,0,3.87.91l8.19,2a5,5,0,0,0,.76.3l9.92,3c3.08,2.24,7.11,1.91,10.34,4.09,5.44,3.66,11.22,6.8,16.86,10.17.9,1,1.52,2.27,3,2.6a135.12,135.12,0,0,1,18.34,16.48c.82.88,1.62,1.78,2.4,2.69h7.21c-.45-1-.1-1.75.69-2.84,11.75-16.24,40.54-16.26,52.19,0,.8,1.12,1.05,1.92.65,2.88h7.36c24-27.72,55.06-43.05,93.68-43.65,36-.57,65.64,11.54,89.58,34.75v-7.37c-1.27-1.31-1.06-2.11,0-3.28v-7.53c-1.28,1.2-2.52,2.48-3.74,3.82-1.47,1.62-2.33,2.17-4.32.55a65,65,0,0,0-9.83-6.69c-3-1.64-2.16-2.89-.43-4.79s3.87-3.18,4.61-5.72l13.71-10.07V786c-.5.36-1,.73-1.47,1.12-5,1.82-9,5.17-12.63,9a25.09,25.09,0,0,0-5.1,4.35c-1.52,1.63-2.93,3.37-4.43,5-1.17,1.29-1.92,2.3-4.07,1.16-4.52-2.39-9.29-4.29-14.61-6.69,12.12-15.72,26.12-27.44,42.31-34.74v-5.74a109,109,0,0,0-45.32,35.79c-1.67,2.23-2.94,3.31-6,2.24-4.62-1.6-9.52-2.4-14.68-3.63a123,123,0,0,1,30.8-34.47,126.16,126.16,0,0,1,35.21-19.31V729.51a109.08,109.08,0,0,0-53.16-38.15c-44.49-15-93.39.59-122.13,39-1.73,2.31-3,3.23-6,2.23-4.66-1.56-9.55-2.4-14.71-3.64A125.2,125.2,0,0,1,1031,690.36,127,127,0,0,1,1063.82,674,117.49,117.49,0,0,1,1078,670.6h.07a128,128,0,0,1,22-1.88c.81,0,1.64,0,2.46,0h.32s1.9-.2,5.11-.23h1.71c2.43,0,5.43.13,8.88.44,2.69.25,5.68.61,8.87,1.14a128.7,128.7,0,0,1,63.09,32.55v-7.45Zm-371.54-24.1h.07a128,128,0,0,1,22-1.88c.81,0,1.64,0,2.46,0h.32s1.9-.2,5.11-.23a4.91,4.91,0,0,0,1.71,0c2.43,0,5.43.13,8.88.44a123.49,123.49,0,0,1,42.08,13,126.44,126.44,0,0,1,48.62,43.59l.1.17c.65,1,1.28,2.07,1.91,3.13l.12.2c-5.83,1.48-11.33,2.82-16.79,4.31-2.46.66-2.7-1.49-3.57-2.64C915,708.81,893.87,694,867.26,688.66c-44.58-9-81.66,4.54-110.47,39.83-3,3.7-5.22,5.42-10,3.32-3.57-1.57-7.72-1.81-11.7-2.67-.43-1.63.94-2.66,1.7-3.76C757.23,695.66,784.22,677,818.29,670.42Zm32.65,62.82c-20.93-2.45-38.64,4.12-53.17,19.22-2.19,2.28-3.55,3.29-6.2.66a26.82,26.82,0,0,0-7-4.76c-4.17-2.05-4.38-3.87-1.12-7.34,16.25-17.24,36.18-25.92,59.94-26.58,24.12.77,44.57,9.8,60.79,28.14,1.94,2.2,1.92,3.25-.69,4.73a56.58,56.58,0,0,0-9.46,6.41c-2.48,2.16-3.42.83-5-.89C878.73,741.71,866.1,735,850.94,733.24ZM885,761.16c-3.35,3-6,8-9.74,9-4,1-6.33-4.92-9.87-7.3-14.89-10-35.22-8.75-48.41,3.42-1.72,1.58-3.38,3.2-5.79,5.49-3.31-3.6-6.64-7.52-10.3-11.11-1.7-1.68-1.25-2.59.08-4a57.26,57.26,0,0,1,84.25-.2C887,758.27,887,759.43,885,761.16Zm-44.7-51.74c-24.9.73-45.58,10.89-61.95,29.59-2.5,2.86-4.22,3.67-7.68,1.57-3.63-2.2-7.8-3.52-12.09-5.38,42.33-59.94,130.15-57.11,169,0-4.83,2.21-9.72,4.27-14.42,6.68-2.32,1.19-2.95-.46-4-1.64C891.07,719.13,868.12,708.6,840.31,709.42Zm-126.95,5.09c-8.41-.1-13.2,5.09-15.88,12.6-3.46-4.82-6.63-9.44-10-13.89-1.43-1.88-1.48-3.09.09-5,12.73-15.59,38.37-15.63,51.26-.06,1.49,1.8,1.85,3,.25,5-3.49,4.4-6.67,9.06-10.18,13.89C726.39,719.57,721.56,714.61,713.36,714.51ZM723,727.27H703.39c1.77-5.14,5.34-7.47,9.88-7.47S721.36,722.19,723,727.27Zm-51.62-36.09c15.37-15.67,33.86-20.79,55.18-16.72a7.05,7.05,0,0,0,4.82,1c8.5,4.1,16.88,8.31,23.43,15.46,1.68,1.84,2.23,3,1.12,4.38l-.33.29-1.34,1.21a46.22,46.22,0,0,0-7.21,7.05c-2,2.4-3,2.35-5.12-.05a38.79,38.79,0,0,0-45.16-9.14,42.44,42.44,0,0,0-14.62,11.63c-3.6-3.43-7-6.91-10.62-10C669.3,694.38,669.39,693.19,671.36,691.18Zm-160.75-.54a129,129,0,0,1,28-14.81l.1,0A123.33,123.33,0,0,1,580,668.91c.81,0,1.64,0,2.46,0h.32c.13,0,11.08-1.15,26.64,1.71,2.31.42,4.73.94,7.23,1.56a127.91,127.91,0,0,1,21.21,8A125.36,125.36,0,0,1,674,705.92,131.62,131.62,0,0,1,691.14,729c-5.55,1.41-10.79,2.8-16.07,4.07-3,.73-3.4-2.2-4.56-3.71-12.65-16.47-28.47-28.75-48-36.06-47-17.64-97.14-3-127.24,37.05-1.73,2.32-3,3.23-6,2.23-4.66-1.56-9.56-2.41-14.71-3.65A124.82,124.82,0,0,1,510.61,690.64Zm112.12,55.88c-26.32-20.54-61.58-18.3-84.81,5.89-2.54,2.64-4,2.84-6.66.49a33.86,33.86,0,0,0-7.82-5.29c-3.73-1.8-2.79-3.31-.63-5.76,32.16-36.43,89.27-36.27,121,.41l2.25,2.59c-.19,1-1,1.3-1.66,1.75-3.86,2.61-7.38,6.5-11.61,7.55C627.88,755.37,626.11,749.17,622.73,746.52Zm2.67,14.28c-3.45,3.11-6.24,8.19-10.15,9.22s-6.49-5.08-10.19-7.46c-15.62-10.06-38.33-9.17-52.94,8.68-3.85-3.67-7.41-7.17-11.08-10.53-1.52-1.4-1.7-2.38-.2-4,23.13-25.17,62.6-24.74,84.88.28C627.24,758.69,626.9,759.44,625.4,760.8Zm16.82-28.09c-34.65-33.25-91.29-30.84-123,5.43-3.18,3.64-5.52,4.47-9.65,2-3.35-2.05-7.18-3.29-11.09-5,15.89-21.71,36.54-36.27,62.72-41.38,42.05-8.21,76.93,4.8,104.28,37.9,2.22,2.69,2.76,4-1.25,5.27-4.38,1.4-8.8,5.54-12.63,4.92C648.05,741.23,645.43,735.79,642.22,732.71ZM453.46,714.52c-8.38-.11-13.33,4.82-15.86,12.71-2.75-3.85-5.3-7.55-7.92-11.15q-1.32-1.83-2.64-3.56c-1.15-1.51-1-2.38,0-3.79,12.11-16.19,39.2-16.31,52-.29,1.29,1.62,1.26,2.65.42,4l0,0c-3.65,4.58-6.75,9-9.12,12.59l-1.55,2.16C466.42,719.58,461.67,714.62,453.46,714.52Zm9.6,12.66a8.12,8.12,0,0,1-1.63.38c-5.88,0-11.76,0-18,0,1.45-5.34,5-7.63,9.53-7.76C457.79,719.68,461.3,722.25,463.06,727.18Zm-51.84-35.8c6.83-7.34,15.2-12.24,24.42-15.87l4-1.25a90.38,90.38,0,0,1,13.64-1.13,54.46,54.46,0,0,1,22.09,4.33,59.51,59.51,0,0,1,19.8,14c1.27,1.35,2,2.27,1,3.56-.38.32-.75.65-1.11,1-1.53,1.36-3,2.72-4.37,4.07-1.17,1.14-2.3,2.28-3.37,3.4-.47.49-.93,1-1.39,1.48a5.74,5.74,0,0,1-.91.31c-3.65.88-6.31-5.12-9.93-7.54a38.93,38.93,0,0,0-50.43,6c-1.5,1.61-2.47,2.22-3.59,1.69a125.52,125.52,0,0,0-11.23-11.25C409.77,693.25,410.24,692.43,411.22,691.38Zm-171.68,8.18c15.83-14.08,42.69-30.65,81.35-30.65.81,0,1.64,0,2.46,0h.32c.13,0,11.08-1.15,26.64,1.71a124,124,0,0,1,28.52,10,127.11,127.11,0,0,1,53.05,48.2c-5.86,1.49-11.39,2.82-16.89,4.32-2.46.66-2.69-1.47-3.57-2.63-16.59-21.92-38-36.74-65.07-42-44.06-8.54-80.66,5-109.18,39.61-3.25,3.95-5.71,5.81-10.79,3.58-3.43-1.5-7.41-1.71-11.24-2.51a1.88,1.88,0,0,1-.06-.31h0A127.87,127.87,0,0,1,239.54,699.56Zm122.73,46.83a61.64,61.64,0,0,0-82.91,4.66c-3.73,3.81-6,4.28-9.71.7a22.82,22.82,0,0,0-6.17-4.17c-3.7-1.73-2.82-3.27-.6-5.73,16.2-17.84,36.41-26.68,60.39-27.42,24.29.76,44.74,9.78,61,28.12,1.85,2.09,2.14,3.13-.59,4.73-4,2.34-7.66,7.2-11.51,7.25C368.89,754.57,365.69,749.14,362.27,746.39ZM365,761.24a97.93,97.93,0,0,0-8.57,8.35c-1.62,1.83-2.3,1.32-3.76-.15-18.5-18.65-41.92-18-61.05,2.39-3.51-3.76-6.77-7.56-10.37-11-1.84-1.75-1.53-2.68-.06-4.39,21-24.41,63.66-24.38,84.26,0C367.16,758.56,366.77,759.64,365,761.24ZM321.33,709.4c-25.31.48-46.3,10.67-62.93,29.65-2.53,2.88-4.27,3.6-7.7,1.54-3.65-2.18-7.8-3.54-11.74-5.26,36.42-55.29,124.64-61.9,168.87-.22-5.07,2.31-9.95,4.37-14.67,6.77-2.33,1.19-2.93-.52-3.94-1.69C371.36,719.41,348.76,708.87,321.33,709.4Zm-159.16-3.19-1.76-1.67a123,123,0,0,0-9.46-9.29l-1-.87c-.35-.84,0-1.61,1-2.62,24.29-26.72,66-23.78,86.43,2.44a16.89,16.89,0,0,0-1.53,1.21c-1.42,1.38-2.75,3.05-4.11,4.62-1.17,1.14-2.3,2.28-3.37,3.4a8.47,8.47,0,0,1-3,1.59c-4.36,1.21-6.74-5.3-10.63-7.74C200,688,177.53,687.88,162.17,706.21Zm8.56,11q-1.32-1.83-2.64-3.56c-.56-.73-1.12-1.45-1.69-2.16-.49-1.17.2-1.94,1-3,12.23-16,39.68-16,51.87,0,1.23,1.63,1.42,2.74.1,4.25-3.83,4.38-6.91,9.3-10.36,14.74-2.5-8.07-7.3-12.8-15.18-13-8.32-.23-13.54,4.45-16.12,12.71-1.15-1.59-2.26-3.14-3.34-4.67C173.16,720.74,172,719,170.73,717.25Zm32.33,10.12H183.48c1.61-5.2,5.23-7.63,10-7.56C198,719.87,201.54,722.24,203.06,727.37ZM11.36,752.93a39.91,39.91,0,0,0-8.24-5.57c-3.11-1.62-2.5-3-.57-5.1,16.23-18,36.52-27.1,60.94-27.83,24.06.76,44.53,9.78,60.78,28.11,1.84,2.07,2.17,3.11-.53,4.69-3.87,2.26-7.2,6.49-11.21,7.14-4.37.72-6.36-5.17-9.74-7.8C76.35,726,41.44,728.18,18,752.35,15.52,754.89,14.08,755.38,11.36,752.93ZM31.57,772c-3.47-3.79-6.67-7.62-10.25-11.06-2-1.92-1.56-3,.05-4.75,22.05-24.26,61.87-24.16,83.85.16,1.91,2.11,2,3.08-.26,4.86a69.53,69.53,0,0,0-8.24,8c-1.73,1.95-2.37,2.06-4.31,0C78.43,754,57,751.77,40.46,763.38,37.31,765.6,34.72,768.42,31.57,772Zm21.87,20.21c1.81-5.19,5.48-7.55,10.29-7.43,4.42.11,7.69,2.6,9.44,7.43ZM64,779.51c-8.61-.36-13.78,4.49-16.37,12.83L38.62,779.4h0c-.49-1.59-2.9-2.1-2.39-4.25,13.67-17.28,37.9-18.45,52.09-2.61,2,2.18,2.45,3.67.37,6.2-3.46,4.21-6.44,8.82-9.72,13.4C76.52,784.81,72,779.84,64,779.51Zm162.18,55.2c-1.35,1.61-2.12,1.45-3.39-.08-15.25-18.27-44.42-17.88-59.13,0-1.28,1.57-2,1.45-3.34,0a93.74,93.74,0,0,0-8.92-8.69c-2.62-2.12-1.47-3.3.21-5,11.33-11.64,25-17.85,41.29-17.92,18.05-.08,32.7,7.21,43.67,19.83C233,827,229.54,830.76,226.22,834.71Zm27-22.21c-3.91,2.14-7.26,6.79-11.11,7.1-3.62.3-6.06-5.32-9.38-8-25.86-20.68-62.15-18.35-84.86,5.78-2.53,2.69-3.95,2.93-6.61.48a36,36,0,0,0-7.82-5.29c-3-1.54-3.36-2.67-1-5.35,16.21-18.11,36.56-27,60.62-27.83,24.22.74,44.56,9.69,60.81,27.75C256.09,809.54,256.52,810.71,253.26,812.5Zm23.31-11.09v.06s0,0,0-.07c-4.39.54-8.13,2.77-11.89,4.8-2.55,1.38-3.93.83-5.74-1.28-17.75-20.67-40.3-31.08-67.56-30.54-25.31.49-46.34,10.61-63,29.67-2.5,2.88-4.43,3.82-7.68,1.44-1.57-1.15-3.61-1.65-5.43-2.44-7-3-7-3-2-9.26,41.11-50.26,117.84-50.09,160.24.36.94,1.11,2,2.14,3,3.21h0C277,798.71,278.21,800.06,276.57,801.41Zm12.91-4.12h0c-5.4,2.63-8-.76-10.28-4.79-.07-.12-.27-.17-.42-.26-22.22-27.67-53.9-41.45-85.54-41.45-32.68,0-65.32,14.69-87.46,43.94-2,2.7-3.69,3.92-7.24,2.63-4.31-1.57-8.94-2.31-14.11-3.57C109.71,755.44,144.8,733.88,190.6,733a141.88,141.88,0,0,1,16.24.59l5,.55c37.72,5,67.57,25.7,90.32,59.51C297.66,795.49,293.16,795.05,289.48,797.29Zm24.1-5a9.39,9.39,0,0,1,9.25-7.49c4.87-.21,8.39,2.31,10.24,7.49Zm9.93-12.79c-8.3,0-13.36,4.77-15.93,12.62-3.53-5-6.73-9.76-10.27-14.29-1.54-2-.93-3.08.32-4.67,12.34-15.71,39.41-15.47,51.61.44,1,1.35,1.5,2.26.31,3.84-3.6,4.75-7,9.63-10.62,14.6C336.38,784.61,331.69,779.55,323.51,779.5ZM495,826.25a83.86,83.86,0,0,0-8.27,8c-1.48,1.57-2.29,2.38-4.11.2-13.95-16.78-42.92-19.4-60.88,2.36-3.4-3.61-6.4-7.21-9.86-10.31-2.27-2-2.4-3.16-.31-5.45,16.54-18.12,45.35-23.3,67.28-12a60.63,60.63,0,0,1,16.27,12.2C497,823.21,497.29,824.37,495,826.25Zm19.15-14.33c-4,2.36-7.48,6.76-11.61,7.37-4.36.64-6.67-5.27-10.16-8-26-20.32-61.56-17.94-84.44,6.1-2.57,2.71-4,2.9-6.63.46a42.8,42.8,0,0,0-6.57-4.49c-4.92-3.11-4.94-3.09-.84-7.59,15-16.44,36.61-26.1,60.56-26.3,23,.5,43.71,9.81,60.14,28.44C516.08,809.61,516.51,810.51,514.12,811.92Zm20-10a42.87,42.87,0,0,0-9.5,4.27c-2.62,1.56-3.88.81-5.69-1.28-35.35-40.68-94.56-41.14-130.35-.89-2.87,3.23-4.89,3.2-8.19,1.42-3.62-1.95-7.5-3.42-11.88-5.37,17-23.25,39.3-38,67.27-42.29,40.41-6.22,73.85,7.17,99.84,38.92C538,799.68,537.78,800.79,534.07,801.91ZM545.68,798c-3,.93-3.41-1.31-4.47-2.73-14.19-19-32.49-32.24-55.08-39.31a108.38,108.38,0,0,0-119.49,37.87c-2.68,3.5-4.83,5-9.25,3.19-3.91-1.56-8.27-2-13.08-3.1,26.64-40.13,63.5-61.75,111.37-60.94q4.88.07,9.58.48a.16.16,0,0,1,0,.06l5.93.66.06-.1c38.3,4.91,68.39,25.71,90.85,59.71C556.15,795.23,550.83,796.33,545.68,798Zm37.86-18.46c-8.43-.2-13.29,4.78-15.95,12.65-3.77-5.22-7.23-10.16-10.88-15-1.1-1.45-.49-2.27.31-3.39,11.66-16.28,40.15-16.34,52.21-.13,1,1.35,1.46,2.31.29,3.85-3.6,4.74-7,9.6-10.64,14.56C596.4,784.6,591.68,779.7,583.54,779.5Zm162.61,55.22c-1.37,1.63-2.15,1.41-3.4-.1-15.16-18.16-44.29-18-59.13.07-1.3,1.58-2,1.42-3.35,0a103.13,103.13,0,0,0-8.91-8.71c-2.16-1.8-1.8-2.83-.12-4.69,22.76-25.38,64.43-24.14,85.23,1.71C753,827,749.47,830.78,746.15,834.72Zm27.1-22.23c-3.92,2.12-7.3,6.83-11.12,7.07s-6.34-5.46-9.79-8.2c-25.65-20.41-61.66-18-84.45,6-2.47,2.61-3.89,3.09-6.63.58a39.17,39.17,0,0,0-8.24-5.55c-3-1.61-2.56-2.87-.58-5.08,16.3-18.3,36.83-27.19,60.89-27.87,24.2.86,44.39,9.77,60.5,27.69C775.88,809.39,776.65,810.64,773.25,812.49Zm9.58-5.52c-2.42,1.18-2.94-1.05-3.83-2.08-14.21-16.56-32-26.85-53.64-29.67-30.37-4-56.07,5.55-76.53,28.34-3.07,3.42-5.14,3.93-8.92,1.69-3.52-2.09-7.48-3.43-11.29-5.12,41.72-59.2,129-57.77,169.06,0C792.71,802.41,787.73,804.6,782.83,807Zm26.37-10c-4.18,1.51-6.5.69-9.32-3-44.37-57.86-130-57.44-174.16.77-2,2.68-3.64,4-7.22,2.67-4.32-1.59-9-2.32-14.14-3.58,25.26-38.34,60.34-59.51,106.14-60.95,48.73-1.53,90.5,25.74,111.1,61.13C817.25,795,813.07,795.53,809.2,796.93Zm43.55-4.77c-.64,1.7-2.91-.16-4.39.42l-2.73,0c-3.07,0-6.15-.08-9.2.17-2,.16-3.23,0-2.95-2.37,1.09-1.19,2.2-2.35,3.26-3.57,3.19-3.65,6.75-3.81,10.64-1.21a.33.33,0,0,0,.12-.05l-.11.06c.92.59,1.88,1.14,2.76,1.8C851.75,788.59,853.45,790.31,852.75,792.16Zm6.19.1-1.52-3.78a17.16,17.16,0,0,0-3.39-4.56,13.13,13.13,0,0,0-4.88-2.9h0c-6.84-2.71-17.85.83-21.72,10.84-3.63-5-7.16-9.87-10.74-14.72-1.45-2,.14-3,1.15-4.2,12-14.45,35.29-15.43,48.76-2,1.41,1.4,2.65,3,4,4.44h0l-4.2,6.94Zm155.78,34.11c-3.39,2.93-6.06,8-9.81,8.84-3.49.82-6-5-9.49-7.33-13.89-9.5-37.11-11-53.38,8.34-3.7-3.54-7.21-7.29-11.14-10.54-3.08-2.55.42-3.51.78-5.2a1,1,0,0,0,.89-.89h0C944.22,809,957.51,803,972.87,803a61.13,61.13,0,0,1,6.14.31c14.32,1.42,26.24,7.67,36.16,18C1017.28,823.59,1016.73,824.63,1014.72,826.37Zm18-13.56c-3.78,2-7.12,6.72-10.68,6.75-3,0-5.92-5.12-9.13-7.67-22.65-18-52.46-19.13-75.52-2.92-2,1.4-4.35,2.55-5.2,5.15-5.45,7-11,5.21-16.61.22l-5.17-3.85c.38-.91.76-1.82,1.15-2.73,2.2-.6,1.83-3.16,3.3-4.33,3.27-1.07,5-4.14,7.76-5.92l3.15-2.94,8.81-5.09a84.6,84.6,0,0,1,39.2-9.92c22.15,0,43.48,9.36,59.88,27.3C1036.29,809.79,1036.16,810.94,1032.68,812.81Zm20.6-10.54c-4,1.34-8.26,5.22-11.7,4.52s-5.95-5.77-9-8.72a85.74,85.74,0,0,0-93.82-16.64c-2,.89-4.56,1.23-5.65,3.65a12.75,12.75,0,0,0-7.59,4.12,6.69,6.69,0,0,0-4.18,3c-3.22,1.5-5.51,4.08-7.83,6.65a3.16,3.16,0,0,0-1.69,1.31,6.66,6.66,0,0,0-.78,2c-3.43.31-3.49,5.5-7.4,5.11-3.81-3.1-9.4-2.43-13-6.09l-2.13-2c1.65-.74,2.23-2.36,3.09-3.74a162.87,162.87,0,0,1,17.91-18.2h0a1.45,1.45,0,0,0,.82-.1c.66.21,1-.14,1.23-.69l-1,.56q.5-.27,1-.57c46.7-33.21,109-24.61,143.58,19.64C1058.09,799.89,1057.28,800.94,1053.28,802.27Zm40-9.84c1.8-5.3,5.42-7.74,10.24-7.61,4.59.13,8,2.56,9.42,7.61Zm35.91-14.61c-3.42,4.67-6.8,9.37-10.36,14.29-2.61-7.65-7.31-12.41-15.26-12.61-8.4-.2-13.37,4.65-16,12.67-3.78-5.22-7.23-10.16-10.88-14.94-1.09-1.42-.6-2.19.21-3.35,11.51-16.4,41.26-16.32,52.57.08C1130.62,775.64,1130.09,776.56,1129.17,777.82Zm15.66-16.56a69.53,69.53,0,0,0-8.25,7.94c-1.73,1.95-2.39,2-4.32-.06-13.87-15-35-17.33-51.52-6a51.23,51.23,0,0,0-8.69,8.14c-3.63-3.47-7.13-7-10.85-10.3-2.07-1.83-1.57-2.94.06-4.74,22-24.26,61.92-24.16,83.84.17C1147,758.52,1147,759.48,1144.83,761.26Zm18.51-13.88c-3.86,2.26-7.23,6.64-11.18,7.11s-6.08-5.17-9.37-7.77c-26.2-20.75-61.58-18.6-84.77,5.52-2.63,2.73-4.26,2.93-7,.5a45.34,45.34,0,0,0-8.26-5.54c-2.42-1.31-2.65-2.33-.8-4.41,13.42-15.1,30-24.45,50-27.36,2.47-.36,5-.62,7.44-.83,1.33-.11,2.66,0,4,0,24.12.7,44.46,9.64,60.62,27.81C1166.08,744.73,1166.13,745.75,1163.34,747.38Zm-77-54.7c40-5.9,73.17,7.42,99,38.78,2.62,3.19,2.27,4.28-1.49,5.57-4.2,1.45-8.55,5.47-12.16,4.78s-6.19-5.92-9.39-9c-34.49-33.17-91-31-122.71,4.86-3.6,4.08-6.22,5.2-10.86,2-2.93-2-6.6-3-10.4-4.57C1035.7,711.68,1058.07,696.84,1086.32,692.68Zm-5.72,99.2c.34.54.61,1.13,1.05,2-5.47,1.36-10.77,2.41-15.88,4-2.58.83-3.25-.69-4.29-2.09-16.93-22.92-39.32-37.59-67.29-42.83-32.58-6.12-62.35.87-88.64,21.46h0c-5.15,4.08-10.16,8.31-14.08,13.67a7.47,7.47,0,0,0-3,3.24c-2.78,2.09-3,7.06-7.79,6.9a2.19,2.19,0,0,0-1.94-.89c-.38,0-.78,0-1.17.08-2.43-1.4-5.22-1.54-7.85-2.25L865,794.07l1.06-4,3.59-4.53,6.15-7.56a136,136,0,0,1,29.25-25.3A129.74,129.74,0,0,1,940.49,737C993.06,722.53,1052,745.5,1080.6,791.88Zm-117-64.45c1-5.08,4.59-7,9-7.63,4.59-.63,8.42,2.42,10.12,7.63Zm35.62-14.55-.39.53c-2.68,3.41-5,6.7-7,9.58l-3,4.19c-2.58-7.77-7.38-12.5-15.61-12.71-7.23-.17-12.15,3.84-15.7,12.59-3.71-5.13-7.26-10.17-11-15.1-1.18-1.57-.1-2.36.68-3.36,12.46-16.13,39.71-16.07,52,0C1000.5,710.33,1000.33,711.34,999.18,712.88Zm17-17.94c-.21.17-.41.35-.61.54l-.33.29-1.34,1.21-.91.85c-.21.18-.42.38-.63.58q-2.1,1.9-4,4c-.22.23-.44.45-.65.68-.06,0-.11.11-.16.16-.47.49-.93,1-1.39,1.48l-.32.35,0,0c-1.19,1-2,.73-3.52-1-8.69-9.58-19.61-13.86-32.57-12.86-11.45.88-20.37,6.41-27.6,15l-1.72-1.66a126.2,126.2,0,0,0-10.72-10.73c-.1-1,.86-1.71,1.64-2.59,21.68-24.42,62.93-24.22,84.1.35C1016.52,693,1017,693.84,1016.22,694.94Z"/><circle class="cls-3" cx="208.47" cy="241.05" r="136.32"/><path class="cls-3" d="M1190.55,288.92V604.83a277.45,277.45,0,0,1-228.5,119.8c-153.4,0-277.75-124.35-277.75-277.75S808.65,169.12,962.05,169.12A277.45,277.45,0,0,1,1190.55,288.92Z"/><path class="cls-4" d="M681.61,310.67a2.94,2.94,0,0,1-.25,1.26,2.57,2.57,0,0,1-.65.86,2.61,2.61,0,0,1-.9.48,3.52,3.52,0,0,1-1,.15H676.7a6.48,6.48,0,0,1-1.74-.21,3.8,3.8,0,0,1-1.42-.74A7.74,7.74,0,0,1,672.2,311a19.81,19.81,0,0,1-1.43-2.38l-14.63-27.27q-1.14-2.12-2.31-4.43t-2.17-4.5h-.07c0,1.77.08,3.59.11,5.44s0,3.7,0,5.53v28.94a1,1,0,0,1-.16.5.94.94,0,0,1-.53.37,5.18,5.18,0,0,1-1,.22,9.27,9.27,0,0,1-1.54.1,9.48,9.48,0,0,1-1.55-.1,4.63,4.63,0,0,1-1-.22.92.92,0,0,1-.51-.37.87.87,0,0,1-.16-.5V268.09a2.46,2.46,0,0,1,.84-2.11,3,3,0,0,1,1.84-.63h3.14a8.09,8.09,0,0,1,1.85.18,4,4,0,0,1,1.34.61,5.47,5.47,0,0,1,1.15,1.19,16.43,16.43,0,0,1,1.16,1.91l11.25,21.05c.69,1.28,1.36,2.54,2,3.76s1.27,2.43,1.87,3.61,1.19,2.36,1.77,3.51,1.16,2.3,1.74,3.46h0q-.08-2.92-.09-6.09t0-6.1v-26a.86.86,0,0,1,.16-.48,1.2,1.2,0,0,1,.53-.39,3.41,3.41,0,0,1,1-.24,13.49,13.49,0,0,1,1.58-.07,12.66,12.66,0,0,1,1.48.07,3.25,3.25,0,0,1,1,.24,1.19,1.19,0,0,1,.51.39.79.79,0,0,1,.16.48Z"/><path class="cls-4" d="M730.38,271.87a9.13,9.13,0,0,1-.07,1.24,3.47,3.47,0,0,1-.23.89,1,1,0,0,1-.37.5.83.83,0,0,1-.48.15,3.29,3.29,0,0,1-1.48-.7,23.47,23.47,0,0,0-2.78-1.56,25.86,25.86,0,0,0-4.17-1.56,20.82,20.82,0,0,0-5.76-.7,16.93,16.93,0,0,0-7.12,1.44,15.41,15.41,0,0,0-5.34,4,18,18,0,0,0-3.35,6.07,26.06,26.06,0,0,0,.11,15.79,17.33,17.33,0,0,0,3.54,6,14.73,14.73,0,0,0,5.39,3.7,18.27,18.27,0,0,0,6.88,1.26,20,20,0,0,0,4.5-.53,17,17,0,0,0,4.25-1.62v-14H712.78a1,1,0,0,1-.95-.63,4.6,4.6,0,0,1-.31-2,8.49,8.49,0,0,1,.07-1.21,2.59,2.59,0,0,1,.24-.81,1.24,1.24,0,0,1,.39-.47,1,1,0,0,1,.56-.15H728a2.32,2.32,0,0,1,.81.15,2.42,2.42,0,0,1,.75.45,1.94,1.94,0,0,1,.51.81,3.38,3.38,0,0,1,.19,1.19v18.27a3.92,3.92,0,0,1-.33,1.67,3,3,0,0,1-1.41,1.24,29,29,0,0,1-2.78,1.17,31.2,31.2,0,0,1-3.52,1.07,30.7,30.7,0,0,1-7.34.89,26.85,26.85,0,0,1-9.93-1.72,20.37,20.37,0,0,1-7.4-4.91A21.5,21.5,0,0,1,693,299.7a31.69,31.69,0,0,1,.13-20.27,22.52,22.52,0,0,1,4.85-7.89,21.64,21.64,0,0,1,7.53-5.06,25.38,25.38,0,0,1,9.72-1.8,26.45,26.45,0,0,1,5.16.48,33.32,33.32,0,0,1,4.28,1.13,17.35,17.35,0,0,1,3.15,1.41,10,10,0,0,1,1.76,1.24,2.53,2.53,0,0,1,.66,1.11A6.55,6.55,0,0,1,730.38,271.87Z"/><path class="cls-4" d="M789.9,264.46a20.3,20.3,0,0,1-.85,6.48,9.22,9.22,0,0,1-2.37,3.88,8,8,0,0,1-3.65,1.87,21.57,21.57,0,0,1-4.73.48v18.42a22.47,22.47,0,0,1-1.26,7.82,15.21,15.21,0,0,1-9.47,9.38,23,23,0,0,1-7.73,1.22,21.48,21.48,0,0,1-7.22-1.15,14.66,14.66,0,0,1-9.18-9,21.84,21.84,0,0,1-1.27-7.8V266.31a1,1,0,0,1,.66-.89,7.08,7.08,0,0,1,2.52-.3,6.84,6.84,0,0,1,2.5.3,1,1,0,0,1,.65.89v29a18.45,18.45,0,0,0,.82,5.82,11,11,0,0,0,2.35,4.13,9.88,9.88,0,0,0,3.71,2.49,13.59,13.59,0,0,0,4.87.83q5.57,0,8.64-3.24c2.05-2.16,3.07-5.4,3.07-9.69V266.31a1,1,0,0,1,.67-.89,7,7,0,0,1,2.52-.3,6.94,6.94,0,0,1,2.47.3,1,1,0,0,1,.68.89v7.38a7.46,7.46,0,0,0,2-.47,3.53,3.53,0,0,0,1.52-1.15,5.54,5.54,0,0,0,1-2.13,13.77,13.77,0,0,0,.34-3.37v-2.11a5.57,5.57,0,0,1,.18-1.56,2,2,0,0,1,.59-.93,2.27,2.27,0,0,1,1.06-.44,10.24,10.24,0,0,1,1.61-.11,9.65,9.65,0,0,1,1.56.11,2.08,2.08,0,0,1,1,.44,2,2,0,0,1,.56.93A6.07,6.07,0,0,1,789.9,264.46Zm-21.68-11a.65.65,0,0,1,.52-.65,6.54,6.54,0,0,1,1.78-.17,3.46,3.46,0,0,1,1.74.28,1.39,1.39,0,0,1,.41,1.2,7.51,7.51,0,0,1-1.91,5.43,7.1,7.1,0,0,1-5.39,2,8.13,8.13,0,0,1-3.41-.67,20.07,20.07,0,0,1-2.65-1.46c-.81-.54-1.56-1-2.26-1.45a4.28,4.28,0,0,0-2.25-.65,2.44,2.44,0,0,0-2.18.93,4.34,4.34,0,0,0-.63,2.48.6.6,0,0,1-.17.43,1.07,1.07,0,0,1-.46.26,2.87,2.87,0,0,1-.72.11l-.95,0a3.29,3.29,0,0,1-1.74-.3,1.38,1.38,0,0,1-.41-1.19,8.87,8.87,0,0,1,.52-3.16,6.21,6.21,0,0,1,1.48-2.32,6.67,6.67,0,0,1,2.32-1.43,8.59,8.59,0,0,1,3-.5,8,8,0,0,1,3.41.67,21,21,0,0,1,2.63,1.44c.79.52,1.54,1,2.24,1.45a4.26,4.26,0,0,0,2.28.67,2.81,2.81,0,0,0,2.06-.76A3.68,3.68,0,0,0,768.22,253.49Z"/><path class="cls-4" d="M843.64,279.39a17,17,0,0,1-1.19,6.49,13.67,13.67,0,0,1-3.39,4.93,15.11,15.11,0,0,1-5.41,3.15,23.48,23.48,0,0,1-7.65,1.11h-5.45v17.27a.85.85,0,0,1-.17.52,1,1,0,0,1-.51.35,4.87,4.87,0,0,1-1,.22,9.43,9.43,0,0,1-1.54.1,9.3,9.3,0,0,1-1.53-.1,5.3,5.3,0,0,1-1-.22.86.86,0,0,1-.66-.87V268.09A2.56,2.56,0,0,1,815,266a2.66,2.66,0,0,1,1.74-.63H827c1,0,2,0,3,.13a27.4,27.4,0,0,1,3.37.55,13.9,13.9,0,0,1,4,1.6,12.15,12.15,0,0,1,5.6,6.82A15.19,15.19,0,0,1,843.64,279.39Zm-6.71.52a9.94,9.94,0,0,0-1.09-4.89,7.58,7.58,0,0,0-2.71-2.93,9,9,0,0,0-3.33-1.22,23,23,0,0,0-3.36-.26h-5.89v19.23h5.75a13.21,13.21,0,0,0,4.79-.74,9,9,0,0,0,3.21-2.05,8.66,8.66,0,0,0,2-3.15A11.52,11.52,0,0,0,836.93,279.91Z"/><path class="cls-4" d="M887.93,312.34a.91.91,0,0,1-.15.52.94.94,0,0,1-.52.35,5,5,0,0,1-1,.22,9.15,9.15,0,0,1-1.5.1,9.45,9.45,0,0,1-1.56-.1,5.3,5.3,0,0,1-1-.22.94.94,0,0,1-.52-.35.91.91,0,0,1-.15-.52V291.07H859.76v21.27a.86.86,0,0,1-.66.87,5.3,5.3,0,0,1-1,.22,9.3,9.3,0,0,1-1.53.1,9.42,9.42,0,0,1-1.52-.1,5.08,5.08,0,0,1-1-.22.94.94,0,0,1-.52-.35.91.91,0,0,1-.15-.52v-46a.91.91,0,0,1,.15-.52,1,1,0,0,1,.52-.35,5.08,5.08,0,0,1,1-.22,10.72,10.72,0,0,1,1.52-.1,10.56,10.56,0,0,1,1.53.1,5.3,5.3,0,0,1,1,.22,1,1,0,0,1,.51.35.91.91,0,0,1,.15.52v19.2h21.83v-19.2a.91.91,0,0,1,.15-.52,1,1,0,0,1,.52-.35,5.3,5.3,0,0,1,1-.22,10.7,10.7,0,0,1,1.56-.1,10.42,10.42,0,0,1,1.5.1,5,5,0,0,1,1,.22,1,1,0,0,1,.52.35.91.91,0,0,1,.15.52Z"/><path class="cls-4" d="M936.59,311a4.92,4.92,0,0,1,.32,1.32.91.91,0,0,1-.28.76,1.84,1.84,0,0,1-1,.33,17.56,17.56,0,0,1-1.84.08c-.76,0-1.38,0-1.83-.06a4.62,4.62,0,0,1-1-.18,1.1,1.1,0,0,1-.52-.36,2.34,2.34,0,0,1-.31-.55L926,300.7H906.05l-3.93,11.53a1.91,1.91,0,0,1-.29.57,1.54,1.54,0,0,1-.54.41,3.32,3.32,0,0,1-1,.24,15.14,15.14,0,0,1-1.69.08,12.2,12.2,0,0,1-1.76-.1,1.73,1.73,0,0,1-1-.35.92.92,0,0,1-.26-.76,4.7,4.7,0,0,1,.31-1.31L912,266.46a2,2,0,0,1,.39-.67,1.62,1.62,0,0,1,.7-.41,6.22,6.22,0,0,1,1.19-.2q.72-.06,1.83-.06c.79,0,1.45,0,2,.06a6.65,6.65,0,0,1,1.26.2,1.71,1.71,0,0,1,.74.43,2,2,0,0,1,.41.69ZM916,271.72h0l-8.26,23.91h16.67Zm4.45-19.6a4.18,4.18,0,0,1,.79-.75,3.46,3.46,0,0,1,.87-.4,5.64,5.64,0,0,1,1.15-.21c.45,0,1,0,1.6,0a7.23,7.23,0,0,1,1.74.16,2.16,2.16,0,0,1,.89.43.57.57,0,0,1,.16.59,1.79,1.79,0,0,1-.42.71l-8.42,7.85a4.13,4.13,0,0,1-.68.58,2.64,2.64,0,0,1-.72.33,4.83,4.83,0,0,1-1,.19,12.46,12.46,0,0,1-1.31.05,7.71,7.71,0,0,1-1.34-.09,1.2,1.2,0,0,1-.67-.3.52.52,0,0,1-.11-.5,2,2,0,0,1,.41-.7Z"/><path class="cls-4" d="M974.06,279.39a17,17,0,0,1-1.19,6.49,13.67,13.67,0,0,1-3.39,4.93,15.11,15.11,0,0,1-5.41,3.15,23.48,23.48,0,0,1-7.65,1.11H951v17.27a.85.85,0,0,1-.17.52,1,1,0,0,1-.51.35,4.87,4.87,0,0,1-1,.22,11.91,11.91,0,0,1-3.08,0,5.37,5.37,0,0,1-1-.22.83.83,0,0,1-.66-.87V268.09a2.56,2.56,0,0,1,.78-2.11,2.66,2.66,0,0,1,1.74-.63h10.26c1,0,2,0,3,.13a27.4,27.4,0,0,1,3.37.55,13.9,13.9,0,0,1,4,1.6,12.15,12.15,0,0,1,5.6,6.82A15.19,15.19,0,0,1,974.06,279.39Zm-6.71.52a9.94,9.94,0,0,0-1.09-4.89,7.58,7.58,0,0,0-2.71-2.93,9,9,0,0,0-3.33-1.22,23,23,0,0,0-3.36-.26H951v19.23h5.75a13.21,13.21,0,0,0,4.79-.74,9,9,0,0,0,3.21-2.05,8.66,8.66,0,0,0,2-3.15A11.52,11.52,0,0,0,967.35,279.91Z"/><path class="cls-4" d="M157.38,229h-6.74v29.33a25.49,25.49,0,0,1-5.1,15.12q-1.92,2.64-10,10.75l-6.2-7.11a55,55,0,0,0,6.92-7.65,17,17,0,0,0,3.28-9.65L139.43,229H132.6v-11.2h6.65v-8.93H132.6v-11h24.78v11h-7v8.93h7Z"/><path class="cls-4" d="M170.36,307.13v13q0,15.75-10.12,24.86-9.47,8.39-24.5,8.38h-4.28v17.67H120.17V307.13h19.31v-8.92h11.11v8.92Zm-11.75,11H131.37V342.2h5q11.38,0,17.12-6.47,5-5.64,5-14.93Z"/><path class="cls-4" d="M169.72,442c-2.07,4.61-4.37,8-6.93,10a16.49,16.49,0,0,1-10.47,3.28H122.9V391.38h11.39v53.11h16.48q6.47,0,9.75-7.29Z"/><path class="cls-4" d="M170.67,493.49H150.82v52.92H139.71V513.62h-19v-11.2h19v-8.93h-19v-11h50Z"/><path d="M613.88,604.3V331.82H662.8V604.3Zm104.2,0-48.15-213h-21V331.82h41.41l48.15,213H751.4V604.3Zm27.54,0V331.82h48.92V604.3Z"/><path d="M863.38,489.16,858.75,445q27-3.45,43.82-10t24.75-15.73a31,31,0,0,0,7.9-20.73q0-10.74-7.23-16.6t-21.47-5.85q-15.42,0-33.9,6.14a127.39,127.39,0,0,0-35,18.23L811,361.37a110.81,110.81,0,0,1,42.56-25.53Q877.63,328,907.29,328q39.09,0,60.28,15.83T988.76,389a63.24,63.24,0,0,1-17.62,44.61q-17.62,18.9-45.94,26.19v19.77Zm25.8,119a305.58,305.58,0,0,1-40.63-2.49,218.11,218.11,0,0,1-32.75-6.72l4.82-49.7q12.51,3.27,28,6.91t39,3.65q25.43,0,39.39-8.83T941,526A26.93,26.93,0,0,0,932.62,506q-8.39-8.15-24.37-12.47t-38.71-4.32h-6.16L858.75,445l55.67,20.53q35.63.39,57.87,17.65t22.25,48.17q0,36.47-27.54,56.61T889.18,608.13Z"/><path class="cls-4" d="M603.62,604.28V332H652.5V604.28Zm104.12,0L659.62,391.45h-21V332H680l48.12,212.83H741v59.44Zm27.52,0V332h48.88V604.28Z"/><path class="cls-4" d="M852.92,489.23l-4.62-44.1q26.94-3.45,43.79-10t24.73-15.72a31,31,0,0,0,7.89-20.71q0-10.73-7.22-16.58T896,376.3q-15.4,0-33.87,6.14a127.35,127.35,0,0,0-35,18.21l-26.55-39.11A110.55,110.55,0,0,1,843.11,336q24-7.86,53.69-7.87,39.06,0,60.24,15.82t21.17,45.16a63.2,63.2,0,0,1-17.61,44.58Q943,452.62,914.7,459.9v19.75Zm25.79,118.88a305.27,305.27,0,0,1-40.61-2.49,219.11,219.11,0,0,1-32.71-6.71l4.81-49.66q12.51,3.25,28,6.9t39,3.64q25.41,0,39.36-8.82t14-24.92a26.88,26.88,0,0,0-8.37-20q-8.37-8.14-24.35-12.46t-38.68-4.32h-6.16l-4.62-44.1,55.62,20.52q35.61.39,57.83,17.64T984,531.42q0,36.44-27.52,56.56T878.71,608.11Z"/></g></g></svg>