<svg id="Layer_1" data-name="Layer 1" xmlns="http://www.w3.org/2000/svg" viewBox="0 0 16 16"><defs><style>.cls-1{fill:#fff;}.cls-2{fill:#ee3542;}</style></defs><circle class="cls-1" cx="8" cy="8" r="8"/><path class="cls-2" d="M-542.4,593.16l-5.94,1.51a2.69,2.69,0,0,1,1.91-1.54l1.77-.41A2.69,2.69,0,0,1-542.4,593.16Z" transform="translate(552.52 -589.43)"/><path class="cls-2" d="M-541.69,594.15l-6.75,1.74h0a2,2,0,0,1,0-1l6.19-1.56A2,2,0,0,1-541.69,594.15Z" transform="translate(552.52 -589.43)"/><polygon class="cls-2" points="10.89 4.93 11.09 5.82 4.31 7.45 4.13 6.65 10.89 4.93"/><polygon class="cls-2" points="11.17 6.14 11.46 7.42 4.59 8.67 4.41 7.87 11.17 6.14"/><path class="cls-2" d="M-546.73,601.48l6.17-2.35a2.47,2.47,0,0,1-2.05,2.45l-1.77.41A2.71,2.71,0,0,1-546.73,601.48Z" transform="translate(552.52 -589.43)"/><path class="cls-2" d="M-540.94,597.35l.28,1.21-6.59,2.25a2,2,0,0,1-.15-.41l-.45-2Z" transform="translate(552.52 -589.43)"/><rect x="-546.93" y="592.03" width="2.51" height="0.66" transform="translate(405.33 -696.98) rotate(-13)"/><rect x="-544.39" y="602.01" width="2.1" height="0.88" transform="translate(403.12 -696.2) rotate(-13)"/></svg>